<?xml version="1.0" encoding="UTF-8" standalone="no"?>
<svg
   height="99.920967mm"
   viewBox="0 0 209.20737 99.920968"
   width="209.20737mm"
   version="1.1"
   id="svg31"
   sodipodi:docname="Lasercut_JetsonOrinNano_Stand.svg"
   inkscape:version="1.4.2 (f4327f4, 2025-05-13)"
   xmlns:inkscape="http://www.inkscape.org/namespaces/inkscape"
   xmlns:sodipodi="http://sodipodi.sourceforge.net/DTD/sodipodi-0.dtd"
   xmlns="http://www.w3.org/2000/svg"
   xmlns:svg="http://www.w3.org/2000/svg"
   xmlns:rdf="http://www.w3.org/1999/02/22-rdf-syntax-ns#"
   xmlns:cc="http://creativecommons.org/ns#"
   xmlns:dc="http://purl.org/dc/elements/1.1/">
  <defs
     id="defs31" />
  <sodipodi:namedview
     id="namedview31"
     pagecolor="#ffffff"
     bordercolor="#000000"
     borderopacity="0.25"
     inkscape:showpageshadow="2"
     inkscape:pageopacity="0.0"
     inkscape:pagecheckerboard="0"
     inkscape:deskcolor="#d1d1d1"
     inkscape:document-units="mm"
     inkscape:zoom="1.1540482"
     inkscape:cx="442.78913"
     inkscape:cy="250.85607"
     inkscape:window-width="1920"
     inkscape:window-height="986"
     inkscape:window-x="-11"
     inkscape:window-y="-11"
     inkscape:window-maximized="1"
     inkscape:current-layer="g61" />
  <!--
ElectronicsBox - Closed box with screw on top and mounting holes

Created with Boxes.py (https://boxes.hackerspace-bamberg.de/)
Creation date: 2025-08-11 14:27:43
Command line (remove spaces between dashes): boxes ElectronicsBox - -x=70.0 - -h=40 - -outsidemounts=0
Url: https://boxes.hackerspace-bamberg.de/ElectronicsBox?FingerJoint_style=rectangular&FingerJoint_surroundingspaces=2.0&FingerJoint_bottom_lip=0.0&FingerJoint_edge_width=1.0&FingerJoint_extra_length=0.0&FingerJoint_finger=2.0&FingerJoint_play=0.0&FingerJoint_space=2.0&FingerJoint_width=1.0&x=70.0&y=100.0&h=40&outside=0&outside=1&triangle=25&d1=2.0&d2=3.0&d3=3.0&outsidemounts=0&holedist=7.0&thickness=3.0&format=svg&tabs=0.0&qr_code=0&debug=0&labels=0&labels=1&reference=100.0&inner_corners=loop&burn=0.1&language=en&render=2
Url short: https://boxes.hackerspace-bamberg.de/ElectronicsBox?x=70.0&h=40&outsidemounts=0
SettingsUrl: https://boxes.hackerspace-bamberg.de/ElectronicsBox?FingerJoint_style=rectangular&FingerJoint_surroundingspaces=2.0&FingerJoint_bottom_lip=0.0&FingerJoint_edge_width=1.0&FingerJoint_extra_length=0.0&FingerJoint_finger=2.0&FingerJoint_play=0.0&FingerJoint_space=2.0&FingerJoint_width=1.0&x=70.0&y=100.0&h=40&outside=0&outside=1&triangle=25&d1=2.0&d2=3.0&d3=3.0&outsidemounts=0&holedist=7.0&thickness=3.0&format=svg&tabs=0.0&qr_code=0&debug=0&labels=0&labels=1&reference=100.0&inner_corners=loop&burn=0.1&language=en&render=2
SettingsUrl short: https://boxes.hackerspace-bamberg.de/ElectronicsBox?x=70.0&h=40&outsidemounts=0
-->
  <metadata
     id="metadata1">
    <rdf:RDF>
      <cc:Work>
        <dc:date>2025-08-11 14:27:43</dc:date>
        <dc:source>https://boxes.hackerspace-bamberg.de/ElectronicsBox?FingerJoint_style=rectangular&amp;FingerJoint_surroundingspaces=2.0&amp;FingerJoint_bottom_lip=0.0&amp;FingerJoint_edge_width=1.0&amp;FingerJoint_extra_length=0.0&amp;FingerJoint_finger=2.0&amp;FingerJoint_play=0.0&amp;FingerJoint_space=2.0&amp;FingerJoint_width=1.0&amp;x=70.0&amp;y=100.0&amp;h=40&amp;outside=0&amp;outside=1&amp;triangle=25&amp;d1=2.0&amp;d2=3.0&amp;d3=3.0&amp;outsidemounts=0&amp;holedist=7.0&amp;thickness=3.0&amp;format=svg&amp;tabs=0.0&amp;qr_code=0&amp;debug=0&amp;labels=0&amp;labels=1&amp;reference=100.0&amp;inner_corners=loop&amp;burn=0.1&amp;language=en&amp;render=2</dc:source>
        <dc:source>https://boxes.hackerspace-bamberg.de/ElectronicsBox?x=70.0&amp;h=40&amp;outsidemounts=0</dc:source>
        <dc:description>Closed box with screw on top and mounting holes

Created with Boxes.py (https://boxes.hackerspace-bamberg.de/)
Command line: boxes ElectronicsBox --FingerJoint_style=rectangular --FingerJoint_surroundingspaces=2.0 --FingerJoint_bottom_lip=0.0 --FingerJoint_edge_width=1.0 --FingerJoint_extra_length=0.0 --FingerJoint_finger=2.0 --FingerJoint_play=0.0 --FingerJoint_space=2.0 --FingerJoint_width=1.0 --x=70.0 --y=100.0 --h=40 --outside=0 --outside=1 --triangle=25 --d1=2.0 --d2=3.0 --d3=3.0 --outsidemounts=0 --holedist=7.0 --thickness=3.0 --format=svg --tabs=0.0 --qr_code=0 --debug=0 --labels=0 --labels=1 --reference=100.0 --inner_corners=loop --burn=0.1
Command line short: boxes ElectronicsBox --x=70.0 --h=40 --outsidemounts=0
Url: https://boxes.hackerspace-bamberg.de/ElectronicsBox?FingerJoint_style=rectangular&amp;FingerJoint_surroundingspaces=2.0&amp;FingerJoint_bottom_lip=0.0&amp;FingerJoint_edge_width=1.0&amp;FingerJoint_extra_length=0.0&amp;FingerJoint_finger=2.0&amp;FingerJoint_play=0.0&amp;FingerJoint_space=2.0&amp;FingerJoint_width=1.0&amp;x=70.0&amp;y=100.0&amp;h=40&amp;outside=0&amp;outside=1&amp;triangle=25&amp;d1=2.0&amp;d2=3.0&amp;d3=3.0&amp;outsidemounts=0&amp;holedist=7.0&amp;thickness=3.0&amp;format=svg&amp;tabs=0.0&amp;qr_code=0&amp;debug=0&amp;labels=0&amp;labels=1&amp;reference=100.0&amp;inner_corners=loop&amp;burn=0.1&amp;language=en&amp;render=2
Url short: https://boxes.hackerspace-bamberg.de/ElectronicsBox?x=70.0&amp;h=40&amp;outsidemounts=0
SettingsUrl: https://boxes.hackerspace-bamberg.de/ElectronicsBox?FingerJoint_style=rectangular&amp;FingerJoint_surroundingspaces=2.0&amp;FingerJoint_bottom_lip=0.0&amp;FingerJoint_edge_width=1.0&amp;FingerJoint_extra_length=0.0&amp;FingerJoint_finger=2.0&amp;FingerJoint_play=0.0&amp;FingerJoint_space=2.0&amp;FingerJoint_width=1.0&amp;x=70.0&amp;y=100.0&amp;h=40&amp;outside=0&amp;outside=1&amp;triangle=25&amp;d1=2.0&amp;d2=3.0&amp;d3=3.0&amp;outsidemounts=0&amp;holedist=7.0&amp;thickness=3.0&amp;format=svg&amp;tabs=0.0&amp;qr_code=0&amp;debug=0&amp;labels=0&amp;labels=1&amp;reference=100.0&amp;inner_corners=loop&amp;burn=0.1&amp;language=en&amp;render=2
SettingsUrl short: https://boxes.hackerspace-bamberg.de/ElectronicsBox?x=70.0&amp;h=40&amp;outsidemounts=0
</dc:description>
      </cc:Work>
    </rdf:RDF>
  </metadata>
  <g
     id="g31"
     transform="translate(-9.9,-133.1016)">
    <g
       id="p-1"
       style="fill:none;stroke-linecap:round;stroke-linejoin:round"
       transform="translate(0,12.700001)">
      <path
         d="m 25.6,186.3 h -2.9 c -0.1,0 0,0.1 0,0 v -2.8 c 0,-0.1 -0.1,0 0,0 h 5.8 c 0.1,0 0,-0.1 0,0 v 2.8 c 0,0.1 0.1,0 0,0 z"
         stroke="#0000ff"
         stroke-width="0.2"
         id="path2" />
      <path
         d="m 64.6,183.5 h 2.9 c 0.1,0 0,-0.1 0,0 v 2.8 c 0,0.1 0.1,0 0,0 h -5.8 c -0.1,0 0,0.1 0,0 v -2.8 c 0,-0.1 -0.1,0 0,0 z"
         stroke="#0000ff"
         stroke-width="0.2"
         id="path3" />
      <path
         d="m 80.1,217.5 c 0.055,0 0.1,-0.045 0.1,-0.1 v -9.5 c 0,-0.055 -0.045,-0.1 -0.1,-0.1 h -2.9 c -0.1,0 0,0.1 0,0 V 202 c 0,-0.1 -0.1,0 0,0 h 2.9 c 0.055,0 0.1,-0.045 0.1,-0.1 v -6 c 0,-0.055 -0.045,-0.1 -0.1,-0.1 h -2.9 c -0.1,0 0,0.1 0,0 V 190 c 0,-0.1 -0.1,0 0,0 h 2.9 c 0.055,0 0.1,-0.045 0.1,-0.1 v -11.0875 c 0,-0.055 -0.045,-0.1 -0.1,-0.1 h -3 -64 -3 c -0.055,0 -0.1,0.045 -0.1,0.1 V 189.9 c 0,0.055 0.045,0.1 0.1,0.1 H 13 c 0.1,0 0,-0.1 0,0 v 5.8 c 0,0.1 0.1,0 0,0 h -2.9 c -0.055,0 -0.1,0.045 -0.1,0.1 v 6 c 0,0.055 0.045,0.1 0.1,0.1 H 13 c 0.1,0 0,-0.1 0,0 v 5.8 c 0,0.1 0.1,0 0,0 h -2.9 c -0.055,0 -0.1,0.045 -0.1,0.1 v 9.5 c 0,0.055 0.045,0.1 0.1,0.1 l 8.191667,0.0299 L 45.1,195.81267 71.908333,217.487 Z"
         stroke="#000000"
         stroke-width="0.2"
         id="path4"
         sodipodi:nodetypes="csssssssssssssssssssccsssssssssssssssssssccccc" />
      <path
         d="m 25.6,202.17501 h -2.9 c -0.1,0 0,0.1 0,0 v -2.8 c 0,-0.1 -0.1,0 0,0 h 5.8 c 0.1,0 0,-0.1 0,0 v 2.8 c 0,0.1 0.1,0 0,0 z"
         stroke="#0000ff"
         stroke-width="0.2"
         id="path32" />
      <path
         d="m 64.6,199.37501 h 2.9 c 0.1,0 0,-0.1 0,0 v 2.8 c 0,0.1 0.1,0 0,0 h -5.8 c -0.1,0 0,0.1 0,0 v -2.8 c 0,-0.1 -0.1,0 0,0 z"
         stroke="#0000ff"
         stroke-width="0.2"
         id="path33" />
    </g>
    <g
       id="p-2"
       style="fill:none;stroke-linecap:round;stroke-linejoin:round"
       transform="translate(0,12.700001)">
      <path
         d="m 97.3,186.3 h -2.9 c -0.1,0 0,0.1 0,0 v -2.8 c 0,-0.1 -0.1,0 0,0 h 5.8 c 0.1,0 0,-0.1 0,0 v 2.8 c 0,0.1 0.1,0 0,0 z"
         stroke="#0000ff"
         stroke-width="0.2"
         id="path5" />
      <path
         d="m 166.3,183.5 h 2.9 c 0.1,0 0,-0.1 0,0 v 2.8 c 0,0.1 0.1,0 0,0 h -5.8 c -0.1,0 0,0.1 0,0 v -2.8 c 0,-0.1 -0.1,0 0,0 z"
         stroke="#0000ff"
         stroke-width="0.2"
         id="path6" />
      <path
         d="m 178.8,217.5 c 0.055,0 0.1,-0.045 0.1,-0.1 V 208 c 0,-0.1 -0.1,0 0,0 h 2.9 c 0.055,0 0.1,-0.045 0.1,-0.1 v -6 c 0,-0.055 -0.045,-0.1 -0.1,-0.1 h -2.9 c -0.1,0 0,0.1 0,0 V 196 c 0,-0.1 -0.1,0 0,0 h 2.9 c 0.055,0 0.1,-0.045 0.1,-0.1 v -6 c 0,-0.055 -0.045,-0.1 -0.1,-0.1 h -2.9 c -0.1,0 0,0.1 0,0 v -10.9875 c 0,-0.055 -0.045,-0.1 -0.1,-0.1 h -94 c -0.055,0 -0.1,0.045 -0.1,0.1 V 189.8 c 0,0.1 0.1,0 0,0 h -2.9 c -0.055,0 -0.1,0.045 -0.1,0.1 v 6 c 0,0.055 0.045,0.1 0.1,0.1 h 2.9 c 0.1,0 0,-0.1 0,0 v 5.8 c 0,0.1 0.1,0 0,0 h -2.9 c -0.055,0 -0.1,0.045 -0.1,0.1 v 6 c 0,0.055 0.045,0.1 0.1,0.1 h 2.9 c 0.1,0 0,-0.1 0,0 v 9.4 c 0,0.055 0.045,0.1 0.1,0.1 h 8.923536 L 131.8153,196.33333 169.90706,217.5 Z"
         stroke="#000000"
         stroke-width="0.2"
         id="path7"
         sodipodi:nodetypes="sssssssssssssssssssssssssssssssssssssssccccs" />
      <path
         d="m 97.3,202.17501 h -2.9 c -0.1,0 0,0.1 0,0 v -2.8 c 0,-0.1 -0.1,0 0,0 h 5.8 c 0.1,0 0,-0.1 0,0 v 2.8 c 0,0.1 0.1,0 0,0 z"
         stroke="#0000ff"
         stroke-width="0.2"
         id="path34" />
      <path
         d="m 166.3,199.37501 h 2.9 c 0.1,0 0,-0.1 0,0 v 2.8 c 0,0.1 0.1,0 0,0 h -5.8 c -0.1,0 0,0.1 0,0 v -2.8 c 0,-0.1 -0.1,0 0,0 z"
         stroke="#0000ff"
         stroke-width="0.2"
         id="path35" />
    </g>
    <g
       id="g58"
       transform="translate(101.29937,191.52257)">
      <path
         d="m 89.608,38.4 h 9.4 c 0.1,0 0,-0.1 0,0 v 2.9 c 0,0.055 0.045,0.1 0.1,0.1 h 6 c 0.056,0 0.1,-0.045 0.1,-0.1 v -2.9 c 0,-0.1 -0.1,0 0,0 h 9.4 c 0.056,0 0.1,-0.045 0.1,-0.1 v -9.4 c 0,-0.1 -0.1,0 0,0 h 2.9 c 0.056,0 0.1,-0.045 0.1,-0.1 v -6 c 0,-0.055 -0.044,-0.1 -0.1,-0.1 h -2.9 c -0.1,0 0,0.1 0,0 v -9.4 c 0,-0.055 -0.044,-0.1 -0.1,-0.1 -0.026,0 -0.052,0.011 -0.07,0.029 l -25,25 c -0.019,0.019 -0.03,0.044 -0.03,0.071 0,0.055 0.045,0.1 0.1,0.1 z"
         stroke="#000000"
         stroke-width="0.2"
         id="path24"
         style="fill:none;stroke-linecap:round;stroke-linejoin:round" />
      <path
         d="m 109.8,13 h -9.4 c -0.1,0 0,0.1 0,0 v -2.9 c 0,-0.055 -0.045,-0.1 -0.1,-0.1 h -6 c -0.055,0 -0.1,0.045 -0.1,0.1 V 13 c 0,0.1 0.1,0 0,0 h -9.4 c -0.055,0 -0.1,0.045 -0.1,0.1 v 9.4 c 0,0.1 0.1,0 0,0 h -2.9 c -0.055,0 -0.1,0.045 -0.1,0.1 v 6 c 0,0.055 0.045,0.1 0.1,0.1 h 2.9 c 0.1,0 0,-0.1 0,0 v 9.4 c 0,0.055 0.045,0.1 0.1,0.1 0.027,0 0.052,-0.011 0.071,-0.029 l 25,-25 c 0.018,-0.019 0.029,-0.044 0.029,-0.071 0,-0.055 -0.045,-0.1 -0.1,-0.1 z"
         stroke="#000000"
         stroke-width="0.2"
         id="path26"
         style="fill:none;stroke-linecap:round;stroke-linejoin:round" />
    </g>
    <path
       d="m 149.83397,187.9546 -6.6468,-6.6468 c -0.0707,-0.0707 -0.0707,0.0707 0,0 l 2.05061,-2.05061 c 0.0389,-0.0389 0.0396,-0.10183 0,-0.14143 l -4.24264,-4.24264 c -0.0389,-0.0389 -0.10254,-0.0389 -0.14143,0 l -2.05061,2.05061 c -0.0707,0.0707 0.0707,0.0707 0,0 l -6.6468,-6.6468 c -0.0389,-0.0389 -0.10253,-0.0389 -0.14142,0 l -6.6468,6.6468 c -0.0707,0.0707 0.0707,0.0707 0,0 l -2.05061,-2.05061 c -0.0389,-0.0389 -0.10253,-0.0389 -0.14143,0 l -4.24264,4.24264 c -0.0389,0.0389 -0.0389,0.10254 0,0.14143 l 2.05061,2.05061 c 0.0707,0.0707 0.0707,-0.0707 0,0 l -6.6468,6.6468 c -0.0389,0.0389 -0.0389,0.10253 0,0.14142 0.0191,0.0191 0.0446,0.029 0.0707,0.0297 h 35.35534 c 0.0269,0 0.0516,-0.0106 0.0707,-0.0297 0.0389,-0.0389 0.0396,-0.10182 0,-0.14142 z"
       stroke="#000000"
       stroke-width="0.2"
       id="path28"
       style="fill:none;stroke-linecap:round;stroke-linejoin:round" />
    <path
       d="m 62.848548,188.17587 -6.6468,-6.6468 c -0.0707,-0.0707 -0.0707,0.0707 0,0 l 2.05061,-2.05061 c 0.0389,-0.0389 0.0396,-0.10183 0,-0.14143 l -4.24264,-4.24264 c -0.0389,-0.0389 -0.10254,-0.0389 -0.14143,0 l -2.05061,2.05061 c -0.0707,0.0707 0.0707,0.0707 0,0 l -6.6468,-6.6468 c -0.0389,-0.0389 -0.10253,-0.0389 -0.14142,0 l -6.6468,6.6468 c -0.0707,0.0707 0.0707,0.0707 0,0 l -2.05061,-2.05061 c -0.0389,-0.0389 -0.10253,-0.0389 -0.14143,0 l -4.24264,4.24264 c -0.0389,0.0389 -0.0389,0.10254 0,0.14143 l 2.05061,2.05061 c 0.0707,0.0707 0.0707,-0.0707 0,0 l -6.6468,6.6468 c -0.0389,0.0389 -0.0389,0.10253 0,0.14142 0.0191,0.0191 0.0446,0.029 0.0707,0.0297 h 35.35534 c 0.0269,0 0.0516,-0.0106 0.0707,-0.0297 0.0389,-0.0389 0.0396,-0.10182 0,-0.14142 z"
       stroke="#000000"
       stroke-width="0.2"
       id="path28-2"
       style="fill:none;stroke-linecap:round;stroke-linejoin:round" />
    <path
       d="m 102.60659,200.53314 q 0.0318,0 0.0318,0.0318 v 1.02099 q 0,0.035 -0.0318,0.035 h -0.24173 q -0.0318,0 -0.0318,-0.0254 l -0.1304,-0.73791 q 0,-0.0254 -0.0318,-0.0254 h -1.05597 q -0.0254,0 -0.0254,0.0318 v 3.73406 q 0,0.0286 0.0318,0.0318 l 0.61704,0.0509 q 0.035,0.003 0.035,0.035 v 0.16857 q 0,0.0318 -0.035,0.0318 h -1.867025 q -0.03499,0 -0.03499,-0.0318 v -0.16857 q 0,-0.0318 0.03499,-0.035 l 0.617045,-0.0509 q 0.0318,-0.003 0.0318,-0.0318 v -3.73406 q 0,-0.0318 -0.0254,-0.0318 h -1.05597 q -0.03181,0 -0.03181,0.0254 l -0.130406,0.73791 q 0,0.0254 -0.03181,0.0254 h -0.241728 q -0.03181,0 -0.03181,-0.035 v -1.02099 q 0,-0.0318 0.03181,-0.0318 z m 1.12594,-0.20992 q 0.0191,-0.006 0.0318,-0.006 h 0.19083 q 0.0318,0 0.0318,0.0318 v 1.9879 q 0.51208,-0.35305 1.0019,-0.35305 0.84287,0 0.84287,0.94464 v 1.68256 q 0,0.0318 0.0318,0.0318 l 0.42303,0.0445 q 0.0318,0 0.0318,0.035 v 0.16221 q 0,0.0318 -0.0318,0.0318 h -1.42811 q -0.0318,0 -0.0318,-0.0318 v -0.16221 q 0,-0.035 0.0318,-0.035 l 0.4103,-0.0445 q 0.035,0 0.035,-0.0318 v -1.49172 q 0,-0.70292 -0.6075,-0.70292 -0.229,0 -0.5248,0.0891 -0.0891,0.0254 -0.15267,0.0604 -0.0318,0.0127 -0.0318,0.0382 v 2.00698 q 0,0.0318 0.0318,0.0318 l 0.4103,0.0445 q 0.0318,0 0.0318,0.035 v 0.16221 q 0,0.0318 -0.0318,0.0318 h -1.45991 q -0.0318,0 -0.0318,-0.0318 v -0.16221 q 0,-0.035 0.0318,-0.035 l 0.45801,-0.0445 q 0.0318,0 0.0318,-0.0318 V 200.753 q 0,-0.0318 -0.0318,-0.0318 l -0.5089,-0.0509 q -0.0318,0 -0.0318,-0.035 v -0.14949 q 0,-0.0318 0.0254,-0.0318 z m 4.27159,1.96245 q -0.50891,0 -0.65839,0.56615 -0.0445,0.16857 -0.0573,0.33078 h 1.32951 q 0.0286,-0.89693 -0.61386,-0.89693 z m -0.72201,1.15138 q 0.0127,0.53117 0.24809,0.84605 0.27036,0.35941 0.77926,0.35941 0.40712,0 0.76335,-0.22264 0.0127,-0.0127 0.0223,-0.006 0.006,0.01 0.0159,0.0191 l 0.0922,0.15903 q 0.006,0.0286 -0.0191,0.0445 -0.55661,0.37213 -1.12594,0.37213 -0.63613,0 -1.0019,-0.39439 -0.35941,-0.38168 -0.35941,-1.02099 0,-0.65521 0.34987,-1.10367 0.38167,-0.493 1.0178,-0.493 0.56297,0 0.85559,0.32124 0.28307,0.3117 0.28307,0.87786 0,0.10178 -0.0127,0.20992 0,0.0318 -0.0318,0.0318 z m 5.25122,-1.02098 q 0,0.0318 0.0318,0.0318 h 0.20038 q 0.53116,0 0.80152,-0.16221 0.35941,-0.21629 0.35941,-0.67748 0,-0.38167 -0.25763,-0.57569 -0.23855,-0.17812 -0.6075,-0.19084 l -0.24809,-0.01 h -0.24809 q -0.0318,0 -0.0318,0.0318 z m 0,2.16919 q 0,0.0318 0.0318,0.0318 h 0.4103 q 1.17047,0 1.17047,-0.88104 0,-1.04006 -1.29451,-1.04006 h -0.28626 q -0.0318,0 -0.0318,0.0318 z m 0.36259,-4.05212 q 0.8047,0 1.14185,0.18129 0.23219,0.12405 0.34351,0.30216 0.13677,0.22265 0.13677,0.51845 0,0.68701 -0.79516,0.97009 0.45483,0.0986 0.75063,0.40076 0.32442,0.3276 0.32442,0.77289 0,0.35941 -0.20674,0.66475 -0.38804,0.57252 -1.54579,0.57252 h -1.66665 q -0.0318,0 -0.0318,-0.0318 v -0.16857 q 0,-0.035 0.0318,-0.035 l 0.55343,-0.0509 q 0.0318,0 0.0318,-0.0318 v -3.74678 q 0,-0.0318 -0.0318,-0.0318 l -0.55343,-0.0541 q -0.0318,0 -0.0318,-0.0318 v -0.16858 q 0,-0.0318 0.0318,-0.0318 z m 5.5184,0 q 0.0318,0 0.0318,0.0318 v 1.02099 q 0,0.035 -0.0318,0.035 h -0.24173 q -0.0318,0 -0.0318,-0.0254 l -0.1304,-0.73791 q 0,-0.0254 -0.0318,-0.0254 h -1.49171 q -0.0318,0 -0.0318,0.0318 v 1.6094 q 0,0.0318 0.0318,0.0318 h 0.89693 q 0.035,0 0.035,-0.0255 l 0.0636,-0.52798 q 0,-0.0254 0.0318,-0.0254 h 0.17811 q 0.0318,0 0.0318,0.0318 v 1.41538 q 0,0.0318 -0.0318,0.0318 h -0.17811 q -0.0318,0 -0.0318,-0.0255 l -0.0636,-0.55979 q 0,-0.0286 -0.035,-0.0286 h -0.89693 q -0.0318,0 -0.0318,0.035 v 1.75889 q 0,0.0318 0.0318,0.0318 h 1.58077 q 0.035,0 0.035,-0.0255 l 0.1304,-0.72518 q 0,-0.0255 0.0318,-0.0255 h 0.24173 q 0.0318,0 0.0318,0.0318 v 1.01144 q 0,0.0318 -0.0318,0.0318 h -3.20608 q -0.0318,0 -0.0318,-0.0318 v -0.16857 q 0,-0.035 0.0318,-0.035 l 0.55343,-0.0509 q 0.0318,0 0.0318,-0.0318 v -3.7595 q -0.0127,-0.0191 -0.0318,-0.0191 l -0.55343,-0.0541 q -0.0318,0 -0.0318,-0.0318 v -0.16858 q 0,-0.0318 0.0318,-0.0318 z m 1.85749,2.03878 q 0,0.0318 0.0254,0.0318 0.45165,0 0.63295,-0.0159 0.46437,-0.0413 0.67747,-0.36578 0.12086,-0.18447 0.12086,-0.45165 0,-0.93828 -1.19591,-0.93828 h -0.22901 q -0.0318,0 -0.0318,0.0318 z m 0.36895,-2.03878 q 0.88421,0 1.27225,0.27353 0.45483,0.32125 0.45483,0.87149 0,0.63295 -0.62022,0.96056 -0.19084,0.10178 -0.4103,0.15903 0.33714,0.16221 0.63294,0.73154 l 0.55979,1.07505 q 0.0127,0.0255 0.0477,0.0255 l 0.47392,0.0509 q 0.0318,0 0.0318,0.035 v 0.16857 q 0,0.0318 -0.0318,0.0318 h -1.02099 q -0.035,0 -0.0477,-0.0255 l -0.55979,-1.17365 q -0.40394,-0.84605 -1.04324,-0.84605 h -0.0763 q -0.0318,0 -0.0318,0.0255 v 1.70163 q 0,0.0286 0.0318,0.0318 l 0.61704,0.0509 q 0.035,0.003 0.035,0.035 v 0.16857 q 0,0.0318 -0.035,0.0318 h -1.81614 q -0.0318,0 -0.0318,-0.0318 v -0.16857 q 0,-0.035 0.0318,-0.035 l 0.55343,-0.0509 q 0.0318,0 0.0318,-0.0318 v -3.74678 q 0,-0.0318 -0.0318,-0.0318 l -0.55343,-0.0541 q -0.0318,0 -0.0318,-0.0318 v -0.16858 q 0,-0.0318 0.0318,-0.0318 z m 5.20351,-0.0986 q 0.34032,0 0.88103,0.10814 0.0795,0.0159 0.25445,0.0477 0.0318,0.006 0.0318,0.0318 v 0.98599 q 0,0.0318 -0.0318,0.0318 h -0.25445 q -0.0318,0 -0.0318,-0.0254 l -0.13041,-0.73154 q 0,-0.0191 -0.0286,-0.0318 -0.55979,-0.12404 -0.73472,-0.12404 -0.85559,0 -1.34859,0.49936 -0.48982,0.49617 -0.48982,1.35176 0,0.86513 0.47392,1.47582 0.51526,0.66157 1.35813,0.66157 0.23854,0 0.65203,-0.0859 v -1.31678 q 0,-0.0318 -0.0318,-0.0318 l -0.55661,-0.0509 q -0.0318,0 -0.0318,-0.0413 v -0.15585 q 0,-0.0382 0.0382,-0.0382 h 1.66347 q 0.0382,0 0.0382,0.0382 v 0.15585 q 0,0.0413 -0.0318,0.0413 l -0.48982,0.0509 q -0.0254,0 -0.0318,0.0191 v 1.51716 q 0,0.0191 -0.0318,0.035 -0.68065,0.15585 -1.27225,0.15585 -1.02416,0 -1.69209,-0.6234 -0.68384,-0.63612 -0.68384,-1.65075 0,-0.68383 0.34033,-1.21818 0.34032,-0.53752 0.96055,-0.82378 0.55979,-0.25763 1.21182,-0.25763 z m 4.0712,0.97645 q -0.0127,-0.0191 -0.0254,-0.0191 -0.0191,0 -0.0255,0.0191 l -0.61386,1.55851 q -0.0191,0.0445 0.0286,0.0445 h 1.17683 q 0.0509,0 0.035,-0.0445 z m 0.63295,3.50506 q -0.0318,0 -0.0318,-0.0318 v -0.16857 q 0,-0.035 0.0318,-0.035 l 0.5089,-0.0509 q 0.0191,0 0.0255,-0.0127 0.006,-0.0127 0,-0.0318 l -0.48346,-1.27861 q -0.0127,-0.0191 -0.0255,-0.0191 h -1.41856 q -0.0159,0.003 -0.0254,0.0191 l -0.51526,1.29133 q -0.0159,0.0413 0.0318,0.0445 l 0.48982,0.0382 q 0.0318,0.003 0.0318,0.035 v 0.16857 q 0,0.0318 -0.0318,0.0318 h -1.40902 q -0.0318,0 -0.0318,-0.0318 v -0.16857 q 0,-0.035 0.0318,-0.035 l 0.53435,-0.0509 q 0.0159,-0.003 0.0254,-0.0191 l 1.65711,-4.16981 q 0.0127,-0.0191 0.0254,-0.0191 h 0.16222 q 0.0159,0.003 0.0254,0.0191 l 1.52352,4.16344 q 0.006,0.0191 0.0286,0.0191 l 0.51844,0.0572 q 0.0286,0 0.0286,0.035 v 0.16857 q 0,0.0318 -0.035,0.0318 z m 5.53748,-4.38291 q 0.0318,0 0.0318,0.0318 v 1.02099 q 0,0.035 -0.0318,0.035 h -0.24173 q -0.0318,0 -0.0318,-0.0254 l -0.1304,-0.73791 q 0,-0.0254 -0.0318,-0.0254 h -1.05597 q -0.0254,0 -0.0254,0.0318 v 3.73406 q 0,0.0286 0.0318,0.0318 l 0.61704,0.0509 q 0.035,0.003 0.035,0.035 v 0.16857 q 0,0.0318 -0.035,0.0318 h -1.86703 q -0.035,0 -0.035,-0.0318 v -0.16857 q 0,-0.0318 0.035,-0.035 l 0.61705,-0.0509 q 0.0318,-0.003 0.0318,-0.0318 v -3.73406 q 0,-0.0318 -0.0254,-0.0318 h -1.05597 q -0.0318,0 -0.0318,0.0254 l -0.1304,0.73791 q 0,0.0254 -0.0318,0.0254 h -0.24173 q -0.0318,0 -0.0318,-0.035 v -1.02099 q 0,-0.0318 0.0318,-0.0318 z m 1.60303,2.03878 q 0,0.0318 0.0255,0.0318 0.45165,0 0.63294,-0.0159 0.46438,-0.0413 0.67748,-0.36578 0.12086,-0.18447 0.12086,-0.45165 0,-0.93828 -1.19592,-0.93828 h -0.229 q -0.0318,0 -0.0318,0.0318 z m 0.36896,-2.03878 q 0.88421,0 1.27225,0.27353 0.45483,0.32125 0.45483,0.87149 0,0.63295 -0.62022,0.96056 -0.19084,0.10178 -0.41031,0.15903 0.33715,0.16221 0.63295,0.73154 l 0.55979,1.07505 q 0.0127,0.0255 0.0477,0.0255 l 0.47391,0.0509 q 0.0318,0 0.0318,0.035 v 0.16857 q 0,0.0318 -0.0318,0.0318 h -1.02098 q -0.035,0 -0.0477,-0.0255 l -0.55979,-1.17365 q -0.40394,-0.84605 -1.04325,-0.84605 h -0.0763 q -0.0318,0 -0.0318,0.0255 v 1.70163 q 0,0.0286 0.0318,0.0318 l 0.61704,0.0509 q 0.035,0.003 0.035,0.035 v 0.16857 q 0,0.0318 -0.035,0.0318 h -1.81614 q -0.0318,0 -0.0318,-0.0318 v -0.16857 q 0,-0.035 0.0318,-0.035 l 0.55343,-0.0509 q 0.0318,0 0.0318,-0.0318 v -3.74678 q 0,-0.0318 -0.0318,-0.0318 l -0.55343,-0.0541 q -0.0318,0 -0.0318,-0.0318 v -0.16858 q 0,-0.0318 0.0318,-0.0318 z m 4.92997,-0.0986 q 0.986,0 1.5935,0.64885 0.59478,0.63294 0.59478,1.6253 0,0.98599 -0.59796,1.63166 -0.61386,0.66793 -1.59032,0.66793 -0.97963,0 -1.6094,-0.64566 -0.62976,-0.64567 -0.62976,-1.62849 0,-0.99235 0.62022,-1.6412 0.63295,-0.65839 1.61894,-0.65839 z m -0.0763,0.29262 q -0.73155,0 -1.15457,0.57569 -0.3785,0.51844 -0.3785,1.27543 0,0.54389 0.18448,1.00826 0.20674,0.51526 0.60432,0.82379 0.39758,0.30534 0.90648,0.30534 0.73473,0 1.1323,-0.5916 0.34033,-0.51208 0.34033,-1.28498 0,-0.86513 -0.42938,-1.46627 -0.46119,-0.64566 -1.20546,-0.64566 z m 2.6431,-0.16222 q 0,-0.0318 0.0318,-0.0318 h 1.1482 q 0.0159,0.003 0.0254,0.0127 l 2.41728,3.19653 v -2.86574 q 0,-0.0318 -0.0286,-0.0318 l -0.48027,-0.0509 q -0.0318,0 -0.0318,-0.035 v -0.19402 q 0,-0.0318 0.0318,-0.0318 h 1.35495 q 0.0318,0 0.0318,0.0318 v 0.19402 q 0,0.035 -0.0318,0.035 l -0.48982,0.0509 q -0.0318,0 -0.0318,0.0318 v 4.05848 q 0,0.0318 -0.0382,0.0318 h -0.12404 q -0.0159,-0.003 -0.0318,-0.0191 l -2.80849,-3.71815 v 3.33966 q 0,0.035 0.0254,0.035 l 0.4771,0.0509 q 0.0318,0 0.0318,0.0318 v 0.1972 q 0,0.0318 -0.0318,0.0318 h -1.35495 q -0.035,0 -0.035,-0.0318 v -0.1972 q 0,-0.0318 0.035,-0.0318 l 0.493,-0.0509 q 0.035,0 0.035,-0.035 v -3.69271 q 0,-0.0318 -0.035,-0.0318 l -0.55343,-0.0509 q -0.0318,0 -0.0318,-0.035 z m 8.55907,2.15647 0.0509,-0.36259 q 0.0223,-0.17812 0.0223,-0.36259 0,-0.31807 -0.11768,-0.61704 -0.13041,-0.32761 -0.3626,-0.5089 -0.15903,-0.12405 -0.38167,-0.12405 -0.36259,0 -0.55025,0.32124 -0.15903,0.26718 -0.15903,0.69656 0,0.5089 0.20674,0.79198 0.229,0.31488 0.69974,0.31488 0.26081,0 0.47391,-0.0891 0.0668,-0.0286 0.11768,-0.0604 z m -0.47391,1.27543 q 0.0891,-0.12722 0.21946,-0.39439 0.11133,-0.22265 0.20356,-0.54389 -0.35941,0.20992 -0.76335,0.20992 -0.6075,0 -0.97963,-0.37531 -0.36895,-0.3785 -0.36895,-0.97964 0,-0.45483 0.22264,-0.8206 0.22264,-0.36895 0.62658,-0.54389 0.264,-0.1145 0.5916,-0.1145 0.68384,0 1.07824,0.50254 0.35941,0.46437 0.35941,1.15775 0,1.17047 -0.75381,2.06423 -0.62659,0.74108 -1.72072,0.86195 -0.0382,0 -0.0382,-0.0254 l -0.0318,-0.20992 q 0,-0.0159 0.0445,-0.0382 0.66793,-0.14313 1.03053,-0.44847 0.16857,-0.13994 0.27989,-0.30216 z m 3.06613,0.72519 q 0.40394,0 0.59478,-0.5089 0.19401,-0.5089 0.19401,-1.44083 0,-0.93192 -0.229,-1.48853 -0.22901,-0.55661 -0.63613,-0.55661 -0.40394,0 -0.59796,0.5089 -0.19083,0.5089 -0.19083,1.43764 0,0.93193 0.229,1.48536 0.22901,0.56297 0.63613,0.56297 z m 0.0191,-4.28749 q 0.72519,0 1.05597,0.57569 0.33397,0.5757 0.33397,1.64439 0,1.1005 -0.3785,1.71436 -0.40076,0.64567 -1.12594,0.64567 -0.722,0 -1.06233,-0.58206 -0.32761,-0.55025 -0.32761,-1.6412 0,-1.09732 0.38168,-1.71436 0.3944,-0.64249 1.12276,-0.64249 z m 3.23788,4.28749 q 0.40394,0 0.59478,-0.5089 0.19402,-0.5089 0.19402,-1.44083 0,-0.93192 -0.22901,-1.48853 -0.229,-0.55661 -0.63612,-0.55661 -0.40394,0 -0.59796,0.5089 -0.19084,0.5089 -0.19084,1.43764 0,0.93193 0.22901,1.48536 0.229,0.56297 0.63612,0.56297 z m 0.0191,-4.28749 q 0.72518,0 1.05597,0.57569 0.33396,0.5757 0.33396,1.64439 0,1.1005 -0.37849,1.71436 -0.40076,0.64567 -1.12594,0.64567 -0.72201,0 -1.06234,-0.58206 -0.3276,-0.55025 -0.3276,-1.6412 0,-1.09732 0.38168,-1.71436 0.39439,-0.64249 1.12276,-0.64249 z m 3.23788,4.28749 q 0.40394,0 0.59478,-0.5089 0.19402,-0.5089 0.19402,-1.44083 0,-0.93192 -0.22901,-1.48853 -0.229,-0.55661 -0.63613,-0.55661 -0.40394,0 -0.59795,0.5089 -0.19084,0.5089 -0.19084,1.43764 0,0.93193 0.229,1.48536 0.22901,0.56297 0.63613,0.56297 z m 0.0191,-4.28749 q 0.72519,0 1.05597,0.57569 0.33397,0.5757 0.33397,1.64439 0,1.1005 -0.3785,1.71436 -0.40076,0.64567 -1.12594,0.64567 -0.722,0 -1.06233,-0.58206 -0.3276,-0.55025 -0.3276,-1.6412 0,-1.09732 0.38167,-1.71436 0.3944,-0.64249 1.12276,-0.64249 z"
       id="text46"
       style="font-size:6.51393px;font-family:Sylfaen;-inkscape-font-specification:Sylfaen;fill:none;stroke:#9141ac;stroke-width:0.127201"
       aria-label="The BERGATRON 9000" />
    <g
       id="g51"
       style="fill:none;stroke-linecap:round;stroke-linejoin:round"
       transform="translate(0,-29.633336)">
      <path
         d="m 25.6,186.3 h -2.9 c -0.1,0 0,0.1 0,0 v -2.8 c 0,-0.1 -0.1,0 0,0 h 5.8 c 0.1,0 0,-0.1 0,0 v 2.8 c 0,0.1 0.1,0 0,0 z"
         stroke="#0000ff"
         stroke-width="0.2"
         id="path47" />
      <path
         d="m 64.6,183.5 h 2.9 c 0.1,0 0,-0.1 0,0 v 2.8 c 0,0.1 0.1,0 0,0 h -5.8 c -0.1,0 0,0.1 0,0 v -2.8 c 0,-0.1 -0.1,0 0,0 z"
         stroke="#0000ff"
         stroke-width="0.2"
         id="path48" />
      <path
         d="m 80.1,217.5 c 0.055,0 0.1,-0.045 0.1,-0.1 v -9.5 c 0,-0.055 -0.045,-0.1 -0.1,-0.1 h -2.9 c -0.1,0 0,0.1 0,0 V 202 c 0,-0.1 -0.1,0 0,0 h 2.9 c 0.055,0 0.1,-0.045 0.1,-0.1 v -6 c 0,-0.055 -0.045,-0.1 -0.1,-0.1 h -2.9 c -0.1,0 0,0.1 0,0 V 190 c 0,-0.1 -0.1,0 0,0 h 2.9 c 0.055,0 0.1,-0.045 0.1,-0.1 v -11.0875 c 0,-0.055 -0.045,-0.1 -0.1,-0.1 h -3 -64 -3 c -0.055,0 -0.1,0.045 -0.1,0.1 V 189.9 c 0,0.055 0.045,0.1 0.1,0.1 H 13 c 0.1,0 0,-0.1 0,0 v 5.8 c 0,0.1 0.1,0 0,0 h -2.9 c -0.055,0 -0.1,0.045 -0.1,0.1 v 6 c 0,0.055 0.045,0.1 0.1,0.1 H 13 c 0.1,0 0,-0.1 0,0 v 5.8 c 0,0.1 0.1,0 0,0 h -2.9 c -0.055,0 -0.1,0.045 -0.1,0.1 v 9.5 c 0,0.055 0.045,0.1 0.1,0.1 l 8.191667,0.0299 L 45.1,195.81267 71.908333,217.487 Z"
         stroke="#000000"
         stroke-width="0.2"
         id="path49"
         sodipodi:nodetypes="csssssssssssssssssssccsssssssssssssssssssccccc" />
      <path
         d="m 25.6,202.17501 h -2.9 c -0.1,0 0,0.1 0,0 v -2.8 c 0,-0.1 -0.1,0 0,0 h 5.8 c 0.1,0 0,-0.1 0,0 v 2.8 c 0,0.1 0.1,0 0,0 z"
         stroke="#0000ff"
         stroke-width="0.2"
         id="path50" />
      <path
         d="m 64.6,199.37501 h 2.9 c 0.1,0 0,-0.1 0,0 v 2.8 c 0,0.1 0.1,0 0,0 h -5.8 c -0.1,0 0,0.1 0,0 v -2.8 c 0,-0.1 -0.1,0 0,0 z"
         stroke="#0000ff"
         stroke-width="0.2"
         id="path51" />
    </g>
    <g
       id="g56"
       style="fill:none;stroke-linecap:round;stroke-linejoin:round"
       transform="translate(0,-29.633336)">
      <path
         d="m 97.3,186.3 h -2.9 c -0.1,0 0,0.1 0,0 v -2.8 c 0,-0.1 -0.1,0 0,0 h 5.8 c 0.1,0 0,-0.1 0,0 v 2.8 c 0,0.1 0.1,0 0,0 z"
         stroke="#0000ff"
         stroke-width="0.2"
         id="path52" />
      <path
         d="m 166.3,183.5 h 2.9 c 0.1,0 0,-0.1 0,0 v 2.8 c 0,0.1 0.1,0 0,0 h -5.8 c -0.1,0 0,0.1 0,0 v -2.8 c 0,-0.1 -0.1,0 0,0 z"
         stroke="#0000ff"
         stroke-width="0.2"
         id="path53" />
      <path
         d="m 178.8,217.5 c 0.055,0 0.1,-0.045 0.1,-0.1 V 208 c 0,-0.1 -0.1,0 0,0 h 2.9 c 0.055,0 0.1,-0.045 0.1,-0.1 v -6 c 0,-0.055 -0.045,-0.1 -0.1,-0.1 h -2.9 c -0.1,0 0,0.1 0,0 V 196 c 0,-0.1 -0.1,0 0,0 h 2.9 c 0.055,0 0.1,-0.045 0.1,-0.1 v -6 c 0,-0.055 -0.045,-0.1 -0.1,-0.1 h -2.9 c -0.1,0 0,0.1 0,0 v -10.9875 c 0,-0.055 -0.045,-0.1 -0.1,-0.1 h -94 c -0.055,0 -0.1,0.045 -0.1,0.1 V 189.8 c 0,0.1 0.1,0 0,0 h -2.9 c -0.055,0 -0.1,0.045 -0.1,0.1 v 6 c 0,0.055 0.045,0.1 0.1,0.1 h 2.9 c 0.1,0 0,-0.1 0,0 v 5.8 c 0,0.1 0.1,0 0,0 h -2.9 c -0.055,0 -0.1,0.045 -0.1,0.1 v 6 c 0,0.055 0.045,0.1 0.1,0.1 h 2.9 c 0.1,0 0,-0.1 0,0 v 9.4 c 0,0.055 0.045,0.1 0.1,0.1 h 8.923536 L 131.8153,196.33333 169.90706,217.5 Z"
         stroke="#000000"
         stroke-width="0.2"
         id="path54"
         sodipodi:nodetypes="sssssssssssssssssssssssssssssssssssssssccccs" />
      <path
         d="m 97.3,202.17501 h -2.9 c -0.1,0 0,0.1 0,0 v -2.8 c 0,-0.1 -0.1,0 0,0 h 5.8 c 0.1,0 0,-0.1 0,0 v 2.8 c 0,0.1 0.1,0 0,0 z"
         stroke="#0000ff"
         stroke-width="0.2"
         id="path55" />
      <path
         d="m 166.3,199.37501 h 2.9 c 0.1,0 0,-0.1 0,0 v 2.8 c 0,0.1 0.1,0 0,0 h -5.8 c -0.1,0 0,0.1 0,0 v -2.8 c 0,-0.1 -0.1,0 0,0 z"
         stroke="#0000ff"
         stroke-width="0.2"
         id="path56" />
    </g>
    <path
       d="m 149.83397,230.28796 -6.6468,-6.6468 c -0.0707,-0.0707 -0.0707,0.0707 0,0 l 2.05061,-2.05061 c 0.0389,-0.0389 0.0396,-0.10183 0,-0.14143 l -4.24264,-4.24264 c -0.0389,-0.0389 -0.10254,-0.0389 -0.14143,0 l -2.05061,2.05061 c -0.0707,0.0707 0.0707,0.0707 0,0 l -6.6468,-6.6468 c -0.0389,-0.0389 -0.10253,-0.0389 -0.14142,0 l -6.6468,6.6468 c -0.0707,0.0707 0.0707,0.0707 0,0 l -2.05061,-2.05061 c -0.0389,-0.0389 -0.10253,-0.0389 -0.14143,0 l -4.24264,4.24264 c -0.0389,0.0389 -0.0389,0.10254 0,0.14143 l 2.05061,2.05061 c 0.0707,0.0707 0.0707,-0.0707 0,0 l -6.6468,6.6468 c -0.0389,0.0389 -0.0389,0.10253 0,0.14142 0.0191,0.0191 0.0446,0.029 0.0707,0.0297 h 35.35534 c 0.0269,0 0.0516,-0.0106 0.0707,-0.0297 0.0389,-0.0389 0.0396,-0.10182 0,-0.14142 z"
       stroke="#000000"
       stroke-width="0.2"
       id="path57"
       style="fill:none;stroke-linecap:round;stroke-linejoin:round" />
    <path
       d="m 62.848548,230.50923 -6.6468,-6.6468 c -0.0707,-0.0707 -0.0707,0.0707 0,0 l 2.05061,-2.05061 c 0.0389,-0.0389 0.0396,-0.10183 0,-0.14143 l -4.24264,-4.24264 c -0.0389,-0.0389 -0.10254,-0.0389 -0.14143,0 l -2.05061,2.05061 c -0.0707,0.0707 0.0707,0.0707 0,0 l -6.6468,-6.6468 c -0.0389,-0.0389 -0.10253,-0.0389 -0.14142,0 l -6.6468,6.6468 c -0.0707,0.0707 0.0707,0.0707 0,0 l -2.05061,-2.05061 c -0.0389,-0.0389 -0.10253,-0.0389 -0.14143,0 l -4.24264,4.24264 c -0.0389,0.0389 -0.0389,0.10254 0,0.14143 l 2.05061,2.05061 c 0.0707,0.0707 0.0707,-0.0707 0,0 l -6.6468,6.6468 c -0.0389,0.0389 -0.0389,0.10253 0,0.14142 0.0191,0.0191 0.0446,0.029 0.0707,0.0297 h 35.35534 c 0.0269,0 0.0516,-0.0106 0.0707,-0.0297 0.0389,-0.0389 0.0396,-0.10182 0,-0.14142 z"
       stroke="#000000"
       stroke-width="0.2"
       id="path58"
       style="fill:none;stroke-linecap:round;stroke-linejoin:round" />
    <g
       id="g60"
       transform="translate(101.29937,158.71427)">
      <path
         d="m 89.608,38.4 h 9.4 c 0.1,0 0,-0.1 0,0 v 2.9 c 0,0.055 0.045,0.1 0.1,0.1 h 6 c 0.056,0 0.1,-0.045 0.1,-0.1 v -2.9 c 0,-0.1 -0.1,0 0,0 h 9.4 c 0.056,0 0.1,-0.045 0.1,-0.1 v -9.4 c 0,-0.1 -0.1,0 0,0 h 2.9 c 0.056,0 0.1,-0.045 0.1,-0.1 v -6 c 0,-0.055 -0.044,-0.1 -0.1,-0.1 h -2.9 c -0.1,0 0,0.1 0,0 v -9.4 c 0,-0.055 -0.044,-0.1 -0.1,-0.1 -0.026,0 -0.052,0.011 -0.07,0.029 l -25,25 c -0.019,0.019 -0.03,0.044 -0.03,0.071 0,0.055 0.045,0.1 0.1,0.1 z"
         stroke="#000000"
         stroke-width="0.2"
         id="path59"
         style="fill:none;stroke-linecap:round;stroke-linejoin:round" />
      <path
         d="m 109.8,13 h -9.4 c -0.1,0 0,0.1 0,0 v -2.9 c 0,-0.055 -0.045,-0.1 -0.1,-0.1 h -6 c -0.055,0 -0.1,0.045 -0.1,0.1 V 13 c 0,0.1 0.1,0 0,0 h -9.4 c -0.055,0 -0.1,0.045 -0.1,0.1 v 9.4 c 0,0.1 0.1,0 0,0 h -2.9 c -0.055,0 -0.1,0.045 -0.1,0.1 v 6 c 0,0.055 0.045,0.1 0.1,0.1 h 2.9 c 0.1,0 0,-0.1 0,0 v 9.4 c 0,0.055 0.045,0.1 0.1,0.1 0.027,0 0.052,-0.011 0.071,-0.029 l 25,-25 c 0.018,-0.019 0.029,-0.044 0.029,-0.071 0,-0.055 -0.045,-0.1 -0.1,-0.1 z"
         stroke="#000000"
         stroke-width="0.2"
         id="path60"
         style="fill:none;stroke-linecap:round;stroke-linejoin:round" />
    </g>
    <g
       id="g61">
      <path
         style="font-size:4.7597px;font-family:Sylfaen;-inkscape-font-specification:Sylfaen;fill:#e01b24;stroke-width:0.0929454"
         d="m 64.097906,137.49365 q 0.0023,-0.005 0.0046,-0.005 0.02092,0 0.02092,0.0279 v 0.12318 q 0,0.0232 -0.02557,0.0232 l -0.404388,0.0395 q -0.02324,0 -0.02324,0.0232 v 2.4426 q 0,0.502 -0.13712,0.79948 -0.185926,0.40206 -0.734407,0.61355 -0.01627,0 -0.02324,-0.0186 l -0.05578,-0.0953 q -0.0046,-0.009 -0.007,-0.0139 -0.0093,-0.0209 0.007,-0.0302 0.237055,-0.14875 0.330018,-0.2603 0.171981,-0.20684 0.204518,-0.62285 0.01162,-0.14874 0.01162,-0.34861 v -2.46584 q 0,-0.0232 -0.02324,-0.0232 l -0.404389,-0.0395 q -0.02557,0 -0.02557,-0.0232 v -0.12318 q 0,-0.0232 0.02557,-0.0232 z m 2.582045,0 q 0.02324,0 0.02324,0.0232 v 0.74603 q 0,0.0256 -0.02324,0.0256 h -0.17663 q -0.02324,0 -0.02324,-0.0186 l -0.09529,-0.53919 q 0,-0.0186 -0.02324,-0.0186 h -1.08999 q -0.02324,0 -0.02324,0.0232 v 1.17598 q 0,0.0232 0.02324,0.0232 h 0.655388 q 0.02557,0 0.02557,-0.0186 l 0.04648,-0.38579 q 0,-0.0186 0.02324,-0.0186 h 0.130148 q 0.02324,0 0.02324,0.0232 v 1.03422 q 0,0.0232 -0.02324,0.0232 h -0.130149 q -0.02324,0 -0.02324,-0.0186 l -0.04648,-0.40903 q 0,-0.0209 -0.02557,-0.0209 H 65.27156 q -0.02324,0 -0.02324,0.0256 v 1.28521 q 0,0.0232 0.02324,0.0232 h 1.155064 q 0.02557,0 0.02557,-0.0186 l 0.09529,-0.52989 q 0,-0.0186 0.02324,-0.0186 h 0.17663 q 0.02324,0 0.02324,0.0232 v 0.73906 q 0,0.0232 -0.02324,0.0232 h -2.342665 q -0.02324,0 -0.02324,-0.0232 v -0.12318 q 0,-0.0256 0.02324,-0.0256 l 0.404389,-0.0372 q 0.02324,0 0.02324,-0.0232 v -2.74705 q -0.0093,-0.0139 -0.02324,-0.0139 l -0.404389,-0.0395 q -0.02324,0 -0.02324,-0.0232 v -0.12318 q 0,-0.0232 0.02324,-0.0232 z m 3.056155,0 q 0.02324,0 0.02324,0.0232 v 0.74603 q 0,0.0256 -0.02324,0.0256 h -0.17663 q -0.02324,0 -0.02324,-0.0186 l -0.09529,-0.53919 q 0,-0.0186 -0.02324,-0.0186 h -0.771592 q -0.01859,0 -0.01859,0.0232 v 2.72846 q 0,0.0209 0.02324,0.0232 l 0.45087,0.0372 q 0.02557,0.002 0.02557,0.0256 v 0.12318 q 0,0.0232 -0.02557,0.0232 h -1.364231 q -0.02556,0 -0.02556,-0.0232 v -0.12318 q 0,-0.0232 0.02556,-0.0256 l 0.450871,-0.0372 q 0.02324,-0.002 0.02324,-0.0232 v -2.72846 q 0,-0.0232 -0.01859,-0.0232 h -0.771592 q -0.02324,0 -0.02324,0.0186 l -0.09529,0.53919 q 0,0.0186 -0.02324,0.0186 h -0.176629 q -0.02324,0 -0.02324,-0.0256 v -0.74603 q 0,-0.0232 0.02324,-0.0232 z m 1.88947,0.80878 q -0.02324,0 -0.02324,-0.0186 l -0.09529,-0.53453 q 0,-0.014 -0.02092,-0.0232 -0.204518,-0.0906 -0.441574,-0.0906 -0.246351,0 -0.418333,0.13015 -0.190574,0.14409 -0.190574,0.38347 0,0.23008 0.169658,0.39044 0.113879,0.10691 0.371851,0.22544 l 0.309102,0.14177 q 0.362555,0.16733 0.527564,0.33931 0.206843,0.21614 0.206843,0.53686 0,0.47876 -0.367204,0.7437 -0.327694,0.23706 -0.822721,0.23706 -0.253324,0 -0.583342,-0.0744 -0.09296,-0.0209 -0.169658,-0.0511 -0.02324,-0.009 -0.02324,-0.0232 v -0.71814 q 0,-0.0232 0.02324,-0.0232 h 0.195222 q 0.02324,0.007 0.02324,0.0186 l 0.09529,0.53686 q 0.0023,0.007 0.0093,0.0116 l 0.01162,0.0139 q 0.167333,0.0837 0.464814,0.0837 0.292833,0 0.490379,-0.13712 0.225435,-0.15571 0.225435,-0.43692 0,-0.39045 -0.520592,-0.63447 l -0.31375,-0.14642 q -0.343962,-0.16036 -0.511295,-0.32769 -0.220787,-0.22079 -0.220787,-0.5206 0,-0.2998 0.183601,-0.53221 0.178954,-0.22543 0.469463,-0.32072 0.185926,-0.0604 0.392768,-0.0604 0.276565,0 0.567074,0.0674 0.07902,0.0186 0.171981,0.0465 0.02324,0.005 0.02324,0.0232 v 0.72047 q 0,0.0232 -0.02324,0.0232 z m 2.335693,-0.88083 q 0.720462,0 1.16436,0.47411 0.434602,0.46249 0.434602,1.1876 0,0.72047 -0.436926,1.19225 -0.448546,0.48806 -1.162036,0.48806 -0.715814,0 -1.17598,-0.47179 -0.460167,-0.47178 -0.460167,-1.18992 0,-0.72511 0.453194,-1.19922 0.462491,-0.48109 1.182953,-0.48109 z m -0.05578,0.21382 q -0.534536,0 -0.843638,0.42065 -0.276564,0.37883 -0.276564,0.93196 0,0.39741 0.134796,0.73673 0.151064,0.3765 0.441573,0.60193 0.290509,0.22311 0.662361,0.22311 0.536861,0 0.82737,-0.43227 0.248675,-0.37418 0.248675,-0.93893 0,-0.63215 -0.313749,-1.0714 -0.336991,-0.47178 -0.880824,-0.47178 z m 1.931304,-0.11853 q 0,-0.0232 0.02324,-0.0232 h 0.83899 q 0.01162,0.002 0.01859,0.009 l 1.766295,2.33569 v -2.09399 q 0,-0.0232 -0.02092,-0.0232 l -0.350935,-0.0372 q -0.02324,0 -0.02324,-0.0256 v -0.14177 q 0,-0.0232 0.02324,-0.0232 h 0.990055 q 0.02324,0 0.02324,0.0232 v 0.14177 q 0,0.0256 -0.02324,0.0256 l -0.357907,0.0372 q -0.02324,0 -0.02324,0.0232 v 2.96552 q 0,0.0232 -0.02789,0.0232 h -0.09064 q -0.01162,-0.002 -0.02324,-0.0139 l -2.052156,-2.71684 v 2.44028 q 0,0.0256 0.01859,0.0256 l 0.34861,0.0372 q 0.02324,0 0.02324,0.0232 v 0.14409 q 0,0.0232 -0.02324,0.0232 h -0.990054 q -0.02557,0 -0.02557,-0.0232 v -0.14409 q 0,-0.0232 0.02557,-0.0232 l 0.360231,-0.0372 q 0.02556,0 0.02556,-0.0256 v -2.69825 q 0,-0.0232 -0.02556,-0.0232 l -0.404389,-0.0372 q -0.02324,0 -0.02324,-0.0256 z m 6.367958,-0.0953 q 0.720462,0 1.16436,0.47411 0.434601,0.46249 0.434601,1.1876 0,0.72047 -0.436925,1.19225 -0.448546,0.48806 -1.162036,0.48806 -0.715815,0 -1.175981,-0.47179 -0.460166,-0.47178 -0.460166,-1.18992 0,-0.72511 0.453194,-1.19922 0.46249,-0.48109 1.182953,-0.48109 z m -0.05578,0.21382 q -0.534537,0 -0.843638,0.42065 -0.276565,0.37883 -0.276565,0.93196 0,0.39741 0.134796,0.73673 0.151065,0.3765 0.441574,0.60193 0.290509,0.22311 0.662361,0.22311 0.53686,0 0.827369,-0.43227 0.248676,-0.37418 0.248676,-0.93893 0,-0.63215 -0.31375,-1.0714 -0.33699,-0.47178 -0.880823,-0.47178 z m 2.888822,1.34796 q 0,0.0232 0.01859,0.0232 0.330019,0 0.462491,-0.0116 0.339314,-0.0302 0.495027,-0.26727 0.08832,-0.13479 0.08832,-0.33002 0,-0.6856 -0.873851,-0.6856 h -0.167334 q -0.02324,0 -0.02324,0.0232 z m 0.269592,-1.48973 q 0.646092,0 0.929629,0.19987 0.332342,0.23473 0.332342,0.6368 0,0.46249 -0.453194,0.70186 -0.139444,0.0744 -0.299805,0.11621 0.246352,0.11853 0.46249,0.53454 l 0.409037,0.78553 q 0.0093,0.0186 0.03486,0.0186 l 0.346287,0.0372 q 0.02324,0 0.02324,0.0256 v 0.12318 q 0,0.0232 -0.02324,0.0232 h -0.746027 q -0.02557,0 -0.03486,-0.0186 l -0.409037,-0.85758 q -0.295157,-0.61821 -0.762296,-0.61821 h -0.05578 q -0.02324,0 -0.02324,0.0186 v 1.24338 q 0,0.0209 0.02324,0.0232 l 0.45087,0.0372 q 0.02557,0.002 0.02557,0.0256 v 0.12318 q 0,0.0232 -0.02557,0.0232 h -1.327045 q -0.02324,0 -0.02324,-0.0232 v -0.12318 q 0,-0.0256 0.02324,-0.0256 l 0.404389,-0.0372 q 0.02324,0 0.02324,-0.0232 v -2.73775 q 0,-0.0232 -0.02324,-0.0232 l -0.404389,-0.0395 q -0.02324,0 -0.02324,-0.0232 v -0.12318 q 0,-0.0232 0.02324,-0.0232 z m 3.265322,0 q 0.02324,0 0.02324,0.0232 v 0.12318 q 0,0.0232 -0.02324,0.0232 l -0.404389,0.0395 q -0.02324,0 -0.02324,0.0232 v 2.73775 q 0,0.0232 0.02324,0.0232 l 0.404389,0.0372 q 0.02324,0 0.02324,0.0256 v 0.12318 q 0,0.0232 -0.02324,0.0232 h -1.280564 q -0.02324,0 -0.02324,-0.0232 v -0.12318 q 0,-0.0256 0.02324,-0.0256 l 0.404388,-0.0372 q 0.02324,0 0.02324,-0.0232 v -2.73775 q 0,-0.0232 -0.02324,-0.0232 l -0.404388,-0.0395 q -0.02324,0 -0.02324,-0.0232 v -0.12318 q 0,-0.0232 0.02324,-0.0232 z m 0.295156,0.0232 q 0,-0.0232 0.02324,-0.0232 h 0.83899 q 0.01162,0.002 0.01859,0.009 l 1.766297,2.33569 v -2.09399 q 0,-0.0232 -0.0209,-0.0232 l -0.35094,-0.0372 q -0.0232,0 -0.0232,-0.0256 v -0.14177 q 0,-0.0232 0.0232,-0.0232 h 0.99006 q 0.0232,0 0.0232,0.0232 v 0.14177 q 0,0.0256 -0.0232,0.0256 l -0.35791,0.0372 q -0.0232,0 -0.0232,0.0232 v 2.96552 q 0,0.0232 -0.0279,0.0232 h -0.0906 q -0.0116,-0.002 -0.0232,-0.0139 l -2.052285,-2.71684 v 2.44028 q 0,0.0256 0.01859,0.0256 l 0.348611,0.0372 q 0.02324,0 0.02324,0.0232 v 0.14409 q 0,0.0232 -0.02324,0.0232 h -0.990055 q -0.02557,0 -0.02557,-0.0232 v -0.14409 q 0,-0.0232 0.02557,-0.0232 l 0.360231,-0.0372 q 0.02557,0 0.02557,-0.0256 v -2.69825 q 0,-0.0232 -0.02557,-0.0232 l -0.404388,-0.0372 q -0.02324,0 -0.02324,-0.0256 z m 4.645817,0 q 0,-0.0232 0.0232,-0.0232 h 0.83899 q 0.0116,0.002 0.0186,0.009 l 1.766294,2.33569 v -2.09399 q 0,-0.0232 -0.0209,-0.0232 l -0.35093,-0.0372 q -0.0232,0 -0.0232,-0.0256 v -0.14177 q 0,-0.0232 0.0232,-0.0232 h 0.990047 q 0.0232,0 0.0232,0.0232 v 0.14177 q 0,0.0256 -0.0232,0.0256 l -0.3579,0.0372 q -0.0232,0 -0.0232,0.0232 v 2.96552 q 0,0.0232 -0.0279,0.0232 h -0.0906 q -0.0116,-0.002 -0.0232,-0.0139 l -2.052254,-2.71684 v 2.44028 q 0,0.0256 0.0186,0.0256 l 0.34861,0.0372 q 0.0232,0 0.0232,0.0232 v 0.14409 q 0,0.0232 -0.0232,0.0232 h -0.99006 q -0.0256,0 -0.0256,-0.0232 v -0.14409 q 0,-0.0232 0.0256,-0.0232 l 0.36023,-0.0372 q 0.0256,0 0.0256,-0.0256 v -2.69825 q 0,-0.0232 -0.0256,-0.0232 l -0.40439,-0.0372 q -0.0232,0 -0.0232,-0.0256 z m 4.982799,0.6182 q -0.009,-0.0139 -0.0186,-0.0139 -0.0139,0 -0.0186,0.0139 l -0.448547,1.1388 q -0.0139,0.0325 0.0209,0.0325 h 0.859907 q 0.0372,0 0.0256,-0.0325 z m 0.462487,2.56113 q -0.0232,0 -0.0232,-0.0232 v -0.12318 q 0,-0.0256 0.0232,-0.0256 l 0.37185,-0.0372 q 0.014,0 0.0186,-0.009 0.005,-0.009 0,-0.0232 l -0.35326,-0.93428 q -0.009,-0.0139 -0.0186,-0.0139 h -1.036534 q -0.0116,0.002 -0.0186,0.0139 l -0.376497,0.94357 q -0.0116,0.0302 0.0232,0.0325 l 0.357907,0.0279 q 0.0232,0.002 0.0232,0.0256 v 0.12318 q 0,0.0232 -0.0232,0.0232 h -1.029554 q -0.0232,0 -0.0232,-0.0232 v -0.12318 q 0,-0.0256 0.0232,-0.0256 l 0.39044,-0.0372 q 0.0116,-0.002 0.0186,-0.0139 l 1.210841,-3.04686 q 0.009,-0.0139 0.0186,-0.0139 h 0.11852 q 0.0116,0.002 0.0186,0.0139 l 1.113224,3.04221 q 0.005,0.0139 0.0209,0.0139 l 0.378827,0.0418 q 0.0209,0 0.0209,0.0256 v 0.12318 q 0,0.0232 -0.0256,0.0232 z m 1.389784,-3.17933 q 0,-0.0232 0.0232,-0.0232 h 0.839 q 0.0116,0.002 0.0186,0.009 l 1.76629,2.33569 v -2.09399 q 0,-0.0232 -0.0209,-0.0232 l -0.35093,-0.0372 q -0.0232,0 -0.0232,-0.0256 v -0.14177 q 0,-0.0232 0.0232,-0.0232 h 0.99005 q 0.0232,0 0.0232,0.0232 v 0.14177 q 0,0.0256 -0.0232,0.0256 l -0.35791,0.0372 q -0.0232,0 -0.0232,0.0232 v 2.96552 q 0,0.0232 -0.0279,0.0232 h -0.0906 q -0.0116,-0.002 -0.0232,-0.0139 l -2.05215,-2.71684 v 2.44028 q 0,0.0256 0.0186,0.0256 l 0.34861,0.0372 q 0.0232,0 0.0232,0.0232 v 0.14409 q 0,0.0232 -0.0232,0.0232 h -0.99006 q -0.0256,0 -0.0256,-0.0232 v -0.14409 q 0,-0.0232 0.0256,-0.0232 l 0.36023,-0.0372 q 0.0256,0 0.0256,-0.0256 v -2.69825 q 0,-0.0232 -0.0256,-0.0232 l -0.40439,-0.0372 q -0.0232,0 -0.0232,-0.0256 z m 5.17804,-0.0953 q 0.72046,0 1.16436,0.47411 0.4346,0.46249 0.4346,1.1876 0,0.72047 -0.43692,1.19225 -0.44855,0.48806 -1.16204,0.48806 -0.71582,0 -1.17598,-0.47179 -0.46017,-0.47178 -0.46017,-1.18992 0,-0.72511 0.45319,-1.19922 0.4625,-0.48109 1.18296,-0.48109 z m -0.0558,0.21382 q -0.53454,0 -0.84364,0.42065 -0.27656,0.37883 -0.27656,0.93196 0,0.39741 0.13479,0.73673 0.15107,0.3765 0.44157,0.60193 0.29051,0.22311 0.66237,0.22311 0.53686,0 0.82737,-0.43227 0.24867,-0.37418 0.24867,-0.93893 0,-0.63215 -0.31375,-1.0714 -0.33699,-0.47178 -0.88082,-0.47178 z m 4.10199,0.0767 q -0.0232,0 -0.0232,0.0232 v 1.35261 q 0,0.0232 0.0232,0.0232 h 0.27656 q 0.84132,0 0.84132,-0.73673 0,-0.3579 -0.26262,-0.52059 -0.22776,-0.14177 -0.62285,-0.14177 z m 0.31375,-0.21846 q 0.45552,0 0.68792,0.079 0.588,0.19987 0.588,0.82969 0,0.42066 -0.3765,0.68793 -0.33467,0.23473 -0.77624,0.24402 l -0.46017,-0.0813 v 1.21084 q 0,0.0209 0.0232,0.0232 l 0.45087,0.0372 q 0.0256,0.002 0.0256,0.0256 v 0.12318 q 0,0.0232 -0.0256,0.0232 h -1.32705 q -0.0232,0 -0.0232,-0.0232 v -0.12318 q 0,-0.0256 0.0232,-0.0256 l 0.40439,-0.0372 q 0.0232,0 0.0232,-0.0232 v -2.73775 q 0,-0.0232 -0.0232,-0.0232 l -0.40439,-0.0395 q -0.0232,0 -0.0232,-0.0232 v -0.12318 q 0,-0.0232 0.0232,-0.0232 z m 3.89284,0 q 0.0232,0 0.0232,0.0232 v 0.74603 q 0,0.0256 -0.0232,0.0256 h -0.17663 q -0.0232,0 -0.0232,-0.0186 l -0.0953,-0.53919 q 0,-0.0186 -0.0232,-0.0186 h -1.09 q -0.0232,0 -0.0232,0.0232 v 1.17598 q 0,0.0232 0.0232,0.0232 h 0.65539 q 0.0256,0 0.0256,-0.0186 l 0.0465,-0.38579 q 0,-0.0186 0.0232,-0.0186 h 0.13015 q 0.0232,0 0.0232,0.0232 v 1.03422 q 0,0.0232 -0.0232,0.0232 h -0.13015 q -0.0232,0 -0.0232,-0.0186 l -0.0465,-0.40903 q 0,-0.0209 -0.0256,-0.0209 h -0.65539 q -0.0232,0 -0.0232,0.0256 v 1.28521 q 0,0.0232 0.0232,0.0232 h 1.15507 q 0.0256,0 0.0256,-0.0186 l 0.0953,-0.52989 q 0,-0.0186 0.0232,-0.0186 h 0.17663 q 0.0232,0 0.0232,0.0232 v 0.73906 q 0,0.0232 -0.0232,0.0232 h -2.34268 q -0.0232,0 -0.0232,-0.0232 v -0.12318 q 0,-0.0256 0.0232,-0.0256 l 0.4044,-0.0372 q 0.0232,0 0.0232,-0.0232 v -2.74705 q -0.009,-0.0139 -0.0232,-0.0139 l -0.4044,-0.0395 q -0.0232,0 -0.0232,-0.0232 v -0.12318 q 0,-0.0232 0.0232,-0.0232 z m 1.34797,2.96087 q 0,0.0232 0.0232,0.0232 h 0.33699 q 0.71814,0 1.04352,-0.25333 0.36487,-0.28818 0.36487,-0.9854 0,-1.52692 -1.33169,-1.52692 h -0.41369 q -0.0232,0 -0.0232,0.0232 z m -0.41601,-2.70987 q 0,-0.0232 -0.0232,-0.0232 l -0.4044,-0.0372 q -0.0232,0 -0.0232,-0.0256 v -0.14177 q 0,-0.0232 0.0232,-0.0232 h 1.28058 q 0.82272,0 1.28289,0.37417 0.502,0.40672 0.502,1.21085 0,1.61755 -1.85694,1.61755 h -1.20853 q -0.0232,0 -0.0232,-0.0232 v -0.14409 q 0,-0.0232 0.0232,-0.0232 l 0.4044,-0.0372 q 0.0232,0 0.0232,-0.0256 z m 5.29426,-0.251 q 0.0232,0 0.0232,0.0232 v 0.74603 q 0,0.0256 -0.0232,0.0256 h -0.17662 q -0.0232,0 -0.0232,-0.0186 l -0.0953,-0.53919 q 0,-0.0186 -0.0232,-0.0186 h -1.09 q -0.0232,0 -0.0232,0.0232 v 1.17598 q 0,0.0232 0.0232,0.0232 h 0.65539 q 0.0256,0 0.0256,-0.0186 l 0.0465,-0.38579 q 0,-0.0186 0.0232,-0.0186 h 0.13015 q 0.0232,0 0.0232,0.0232 v 1.03422 q 0,0.0232 -0.0232,0.0232 h -0.13015 q -0.0232,0 -0.0232,-0.0186 l -0.0465,-0.40903 q 0,-0.0209 -0.0256,-0.0209 h -0.65539 q -0.0232,0 -0.0232,0.0256 v 1.28521 q 0,0.0232 0.0232,0.0232 h 1.15507 q 0.0256,0 0.0256,-0.0186 l 0.0953,-0.52989 q 0,-0.0186 0.0232,-0.0186 h 0.17663 q 0.0232,0 0.0232,0.0232 v 0.73906 q 0,0.0232 -0.0232,0.0232 h -2.34268 q -0.0232,0 -0.0232,-0.0232 v -0.12318 q 0,-0.0256 0.0232,-0.0256 l 0.4044,-0.0372 q 0.0232,0 0.0232,-0.0232 v -2.74705 q -0.009,-0.0139 -0.0232,-0.0139 l -0.4044,-0.0395 q -0.0232,0 -0.0232,-0.0232 v -0.12318 q 0,-0.0232 0.0232,-0.0232 z m 2.07541,0.80878 q -0.0232,0 -0.0232,-0.0186 l -0.0953,-0.53453 q 0,-0.014 -0.0209,-0.0232 -0.20452,-0.0906 -0.44157,-0.0906 -0.24635,0 -0.41834,0.13015 -0.19057,0.14409 -0.19057,0.38347 0,0.23008 0.16966,0.39044 0.11388,0.10691 0.37185,0.22544 l 0.3091,0.14177 q 0.36256,0.16733 0.52757,0.33931 0.20684,0.21614 0.20684,0.53686 0,0.47876 -0.36721,0.7437 -0.32769,0.23706 -0.82272,0.23706 -0.25332,0 -0.58334,-0.0744 -0.093,-0.0209 -0.16966,-0.0511 -0.0232,-0.009 -0.0232,-0.0232 v -0.71814 q 0,-0.0232 0.0232,-0.0232 h 0.19522 q 0.0232,0.007 0.0232,0.0186 l 0.0953,0.53686 q 0.002,0.007 0.009,0.0116 l 0.0116,0.0139 q 0.16734,0.0837 0.46482,0.0837 0.29283,0 0.49038,-0.13712 0.22544,-0.15571 0.22544,-0.43692 0,-0.39045 -0.5206,-0.63447 l -0.31375,-0.14642 q -0.34396,-0.16036 -0.5113,-0.32769 -0.22079,-0.22079 -0.22079,-0.5206 0,-0.2998 0.18361,-0.53221 0.17895,-0.22543 0.46946,-0.32072 0.18593,-0.0604 0.39277,-0.0604 0.27657,0 0.56708,0.0674 0.079,0.0186 0.17198,0.0465 0.0232,0.005 0.0232,0.0232 v 0.72047 q 0,0.0232 -0.0232,0.0232 z m 3.26997,-0.80878 q 0.0232,0 0.0232,0.0232 v 0.74603 q 0,0.0256 -0.0232,0.0256 h -0.17663 q -0.0232,0 -0.0232,-0.0186 l -0.0953,-0.53919 q 0,-0.0186 -0.0232,-0.0186 h -0.77159 q -0.0186,0 -0.0186,0.0232 v 2.72846 q 0,0.0209 0.0232,0.0232 l 0.45087,0.0372 q 0.0256,0.002 0.0256,0.0256 v 0.12318 q 0,0.0232 -0.0256,0.0232 h -1.36423 q -0.0256,0 -0.0256,-0.0232 v -0.12318 q 0,-0.0232 0.0256,-0.0256 l 0.45087,-0.0372 q 0.0232,-0.002 0.0232,-0.0232 v -2.72846 q 0,-0.0232 -0.0186,-0.0232 h -0.77159 q -0.0232,0 -0.0232,0.0186 l -0.0953,0.53919 q 0,0.0186 -0.0232,0.0186 h -0.17663 q -0.0232,0 -0.0232,-0.0256 v -0.74603 q 0,-0.0232 0.0232,-0.0232 z m 1.74072,0.64144 q -0.009,-0.0139 -0.0186,-0.0139 -0.0139,0 -0.0186,0.0139 l -0.44855,1.1388 q -0.0139,0.0325 0.0209,0.0325 h 0.85991 q 0.0372,0 0.0256,-0.0325 z m 0.46249,2.56113 q -0.0232,0 -0.0232,-0.0232 v -0.12318 q 0,-0.0256 0.0232,-0.0256 l 0.37186,-0.0372 q 0.0139,0 0.0186,-0.009 0.005,-0.009 0,-0.0232 l -0.35326,-0.93428 q -0.009,-0.0139 -0.0186,-0.0139 h -1.03654 q -0.0116,0.002 -0.0186,0.0139 l -0.3765,0.94357 q -0.0116,0.0302 0.0232,0.0325 l 0.35791,0.0279 q 0.0232,0.002 0.0232,0.0256 v 0.12318 q 0,0.0232 -0.0232,0.0232 h -1.02957 q -0.0232,0 -0.0232,-0.0232 v -0.12318 q 0,-0.0256 0.0232,-0.0256 l 0.39045,-0.0372 q 0.0116,-0.002 0.0186,-0.0139 l 1.21084,-3.04686 q 0.009,-0.0139 0.0186,-0.0139 h 0.11853 q 0.0116,0.002 0.0186,0.0139 l 1.11323,3.04221 q 0.005,0.0139 0.0209,0.0139 l 0.37882,0.0418 q 0.0209,0 0.0209,0.0256 v 0.12318 q 0,0.0232 -0.0256,0.0232 z m 1.47579,-3.17933 q 0,-0.0232 0.0232,-0.0232 h 1.28986 q 0.0232,0 0.0232,0.0232 v 0.12318 q 0,0.0232 -0.0232,0.0232 l -0.42763,0.0395 q -0.0232,0 -0.0232,0.0232 v 2.72846 q 0,0.0232 0.0232,0.0232 h 1.10394 q 0.0232,0 0.0232,-0.0186 l 0.0953,-0.52989 q 0,-0.0186 0.0232,-0.0186 h 0.17663 q 0.0232,0 0.0232,0.0232 v 0.73906 q 0,0.0232 -0.0232,0.0232 h -2.28456 q -0.0232,0 -0.0232,-0.0232 v -0.12318 q 0,-0.0256 0.0232,-0.0256 l 0.39974,-0.0372 q 0.0232,0 0.0232,-0.0232 v -2.73775 q 0,-0.0232 -0.0232,-0.0232 l -0.39974,-0.0395 q -0.0232,0 -0.0232,-0.0232 z m 3.89747,2.0754 q -0.0256,0 -0.0256,-0.0232 v -0.19987 q 0,-0.0256 0.0256,-0.0256 h 1.28057 q 0.0232,0 0.0232,0.0256 v 0.19987 q 0,0.0232 -0.0232,0.0232 z m 4.14847,-2.12885 q 0.0186,0 0.0186,0.0209 v 2.98411 q 0,0.0256 0.0302,0.0279 l 0.40439,0.0325 q 0.0186,0.002 0.0186,0.0209 v 0.12783 q 0,0.0186 -0.0186,0.0186 h -1.29451 q -0.0186,0 -0.0186,-0.0186 v -0.12783 q 0,-0.0186 0.0186,-0.0209 l 0.42763,-0.0325 q 0.009,0 0.0186,-0.007 0.009,-0.007 0.009,-0.0209 v -2.55183 q 0,-0.0279 -0.0232,-0.0279 l -0.50432,0.0651 q -0.0116,-0.002 -0.0186,-0.0186 l -0.0325,-0.12317 q 0,-0.005 0.005,-0.009 l 0.009,-0.009 0.79948,-0.32537 q 0.0186,-0.005 0.0232,-0.005 z m 2.37985,0 q 0.0186,0 0.0186,0.0209 v 2.98411 q 0,0.0256 0.0302,0.0279 l 0.40438,0.0325 q 0.0186,0.002 0.0186,0.0209 v 0.12783 q 0,0.0186 -0.0186,0.0186 h -1.2945 q -0.0186,0 -0.0186,-0.0186 v -0.12783 q 0,-0.0186 0.0186,-0.0209 l 0.42763,-0.0325 q 0.009,0 0.0186,-0.007 0.009,-0.007 0.009,-0.0209 v -2.55183 q 0,-0.0279 -0.0232,-0.0279 l -0.50432,0.0651 q -0.0116,-0.002 -0.0186,-0.0186 l -0.0325,-0.12317 q 0,-0.005 0.005,-0.009 l 0.009,-0.009 0.79949,-0.32537 q 0.0186,-0.005 0.0232,-0.005 z m 2.41936,-0.0651 q 0.0232,0.007 0.014,0.0325 l -1.28522,3.54653 q -0.005,0.0232 -0.0325,0.0139 l -0.17663,-0.0581 q -0.0232,-0.007 -0.0139,-0.0325 l 1.28522,-3.54654 q 0.007,-0.0209 0.0325,-0.0139 z m 1.20852,3.12588 q 0.37417,0 0.502,-0.34396 0.0395,-0.10691 0.0395,-0.23706 0,-0.3765 -0.39974,-0.6182 -0.12783,-0.0767 -0.27424,-0.14642 -0.20685,0.093 -0.32537,0.29981 -0.11388,0.19754 -0.11388,0.43692 0,0.41369 0.32072,0.55778 0.10923,0.0511 0.251,0.0511 z m -0.0279,-2.87488 q -0.20684,0 -0.32305,0.14642 -0.1162,0.14409 -0.1162,0.35326 0,0.25797 0.14177,0.41601 0.1162,0.13247 0.41136,0.27889 h 0.0325 q 0.34861,-0.19755 0.34861,-0.65539 0,-0.24171 -0.13248,-0.39045 -0.13014,-0.14874 -0.36255,-0.14874 z m 0.0511,-0.22776 q 0.36953,0 0.61588,0.19522 0.25565,0.20452 0.25565,0.53687 0,0.51594 -0.57637,0.81574 0.38114,0.18593 0.54383,0.38348 0.18128,0.22311 0.18128,0.52524 0,0.30445 -0.19523,0.52756 -0.17895,0.20452 -0.47875,0.29748 -0.19755,0.0604 -0.41137,0.0604 -0.41368,0 -0.69722,-0.21614 -0.30445,-0.22776 -0.30445,-0.59264 0,-0.31142 0.18128,-0.52989 0.1743,-0.20916 0.50432,-0.3672 -0.29748,-0.16036 -0.4439,-0.34629 -0.14641,-0.18592 -0.14641,-0.46714 0,-0.38579 0.28586,-0.61355 0.26029,-0.20917 0.6856,-0.20917 z m 2.62387,-0.0232 q 0.0232,0.007 0.0139,0.0325 l -1.28522,3.54653 q -0.005,0.0232 -0.0325,0.0139 l -0.17663,-0.0581 q -0.0232,-0.007 -0.014,-0.0325 l 1.28521,-3.54654 q 0.007,-0.0209 0.0325,-0.0139 z m 2.16604,2.91206 q 0.0186,0 0.0186,0.0186 v 0.34861 q 0,0.0186 -0.0186,0.0186 h -1.95222 q -0.005,0 -0.007,-0.002 -0.002,-0.002 -0.007,-0.007 l -0.072,-0.11852 q -0.005,-0.007 -0.005,-0.0163 0,-0.009 0.009,-0.014 0.67863,-0.58334 1.10393,-1.17365 0.13248,-0.18593 0.23938,-0.46482 0.10923,-0.28121 0.10923,-0.53686 0,-0.29051 -0.15106,-0.48573 -0.16269,-0.21381 -0.43925,-0.21381 -0.19987,0 -0.37185,0.086 -0.0209,0.005 -0.0279,0.0442 l -0.0767,0.48109 q 0,0.0139 -0.0186,0.0139 h -0.19522 q -0.0186,0 -0.0186,-0.0186 v -0.63447 q 0,-0.0186 0.0186,-0.0325 0.1348,-0.0813 0.39742,-0.13944 0.19754,-0.0418 0.42995,-0.0418 0.41136,0 0.66701,0.19987 0.28586,0.22311 0.28586,0.58567 0,0.28121 -0.14409,0.62053 -0.11621,0.26959 -0.30446,0.52059 -0.30445,0.40439 -0.918,0.96216 z m 0.78553,-1.71284 q 0.19987,-0.0442 0.42763,-0.0442 0.49038,0 0.80646,0.28121 0.31607,0.28121 0.31607,0.7437 0,0.5113 -0.3672,0.84829 -0.36721,0.33699 -0.90872,0.33699 -0.16733,0 -0.3765,-0.0558 -0.20916,-0.0558 -0.33234,-0.16501 -0.0116,-0.0116 -0.0163,-0.0209 -0.002,-0.007 0.002,-0.0116 l 0.0953,-0.13712 q 0.005,-0.005 0.0116,-0.007 0.009,0 0.0209,0.007 0.16733,0.10924 0.42995,0.14875 0.0744,0.0116 0.14642,0.0116 0.35558,0 0.58799,-0.22776 0.23473,-0.23009 0.23473,-0.58102 0,-0.33932 -0.22543,-0.54848 -0.22311,-0.21149 -0.58334,-0.21149 -0.22079,0 -0.49968,0.0744 -0.0372,0.009 -0.0372,-0.0186 v -1.50832 q 0,-0.0186 0.0232,-0.0186 h 1.56642 q 0.0186,0 0.0186,0.0186 v 0.36721 q 0,0.0186 -0.0186,0.0186 h -1.29916 q -0.0349,0 -0.0349,0.0325 v 0.67631 z m 4.7876,-0.29515 q -0.0232,0 -0.0232,-0.0186 l -0.0953,-0.53453 q 0,-0.014 -0.0209,-0.0232 -0.20452,-0.0906 -0.44157,-0.0906 -0.24635,0 -0.41834,0.13015 -0.19057,0.14409 -0.19057,0.38347 0,0.23008 0.16966,0.39044 0.11388,0.10691 0.37185,0.22544 l 0.3091,0.14177 q 0.36256,0.16733 0.52757,0.33931 0.20684,0.21614 0.20684,0.53686 0,0.47876 -0.36721,0.7437 -0.32769,0.23706 -0.82272,0.23706 -0.25332,0 -0.58334,-0.0744 -0.093,-0.0209 -0.16966,-0.0511 -0.0232,-0.009 -0.0232,-0.0232 v -0.71814 q 0,-0.0232 0.0232,-0.0232 h 0.19523 q 0.0232,0.007 0.0232,0.0186 l 0.0953,0.53686 q 0.002,0.007 0.009,0.0116 l 0.0116,0.0139 q 0.16733,0.0837 0.46481,0.0837 0.29284,0 0.49038,-0.13712 0.22544,-0.15571 0.22544,-0.43692 0,-0.39045 -0.52059,-0.63447 l -0.31375,-0.14642 q -0.34397,-0.16036 -0.5113,-0.32769 -0.22079,-0.22079 -0.22079,-0.5206 0,-0.2998 0.18361,-0.53221 0.17895,-0.22543 0.46946,-0.32072 0.18592,-0.0604 0.39277,-0.0604 0.27656,0 0.56707,0.0674 0.079,0.0186 0.17198,0.0465 0.0232,0.005 0.0232,0.0232 v 0.72047 q 0,0.0232 -0.0232,0.0232 z m 1.55015,0.32769 q 0.0256,0 0.0256,0.0232 v 0.12085 q 0,0.0186 -0.0209,0.0186 l -0.24636,0.0279 q -0.0325,0 -0.0186,0.0325 l 0.5601,1.35726 0.57637,-1.35726 q 0.0139,-0.0325 -0.0186,-0.0325 l -0.24635,-0.0279 q -0.0209,0 -0.0209,-0.0186 v -0.12085 q 0,-0.0232 0.0256,-0.0232 h 0.76462 q 0.0256,0 0.0256,0.0232 v 0.1162 q 0,0.0233 -0.0256,0.0233 l -0.2603,0.0279 q -0.0116,0.002 -0.0186,0.014 l -0.85294,2.008 q -0.46016,1.08069 -0.79948,1.08069 -0.0139,0 -0.0325,-0.009 l -0.22544,-0.22311 q -0.0163,-0.0163 -0.005,-0.0325 l 0.0581,-0.0953 q 0.009,-0.009 0.0233,-0.009 0.22543,0 0.3672,-0.10458 0.11155,-0.0837 0.2417,-0.30213 0.0813,-0.1348 0.19987,-0.40904 0.009,-0.0209 0,-0.0604 l -0.77624,-1.83834 q -0.009,-0.014 -0.0186,-0.014 l -0.27656,-0.0325 q -0.0186,0 -0.0186,-0.0186 v -0.12085 q 0,-0.0232 0.0232,-0.0232 z m 2.59599,0.13944 q -0.3091,0 -0.45784,0.2603 -0.11853,0.20684 -0.11853,0.53919 0,0.667 0.35791,0.90406 0.13014,0.086 0.31375,0.086 0.57404,0 0.57404,-0.80645 0,-0.39742 -0.13479,-0.65307 -0.17199,-0.33002 -0.53454,-0.33002 z m 0.0604,-0.20684 q 0.50199,0 0.77624,0.29284 0.26726,0.28586 0.26726,0.7925 0,0.48574 -0.28818,0.79716 -0.29748,0.3184 -0.77857,0.3184 -0.49735,0 -0.77391,-0.29748 -0.27192,-0.28819 -0.27192,-0.78786 0,-0.49271 0.28586,-0.79948 0.29516,-0.31608 0.78322,-0.31608 z m 1.34099,0.12085 0.57172,-0.0953 q 0.0279,-0.005 0.0488,-0.005 h 0.11387 q 0.0232,0 0.0232,0.0232 v 0.20452 q 0.34396,-0.25797 0.69024,-0.25797 0.35094,0 0.51827,0.30445 0.34397,-0.28354 0.74371,-0.28354 0.6089,0 0.6089,0.69025 v 1.20852 q 0,0.0232 0.0232,0.0232 l 0.30911,0.0325 q 0.0256,0 0.0256,0.0256 v 0.11853 q 0,0.0232 -0.0256,0.0232 h -1.01777 q -0.0232,0 -0.0232,-0.0232 v -0.11853 q 0,-0.0256 0.0232,-0.0256 l 0.27657,-0.0325 q 0.0232,0 0.0232,-0.0232 v -1.06675 q 0,-0.51362 -0.43693,-0.51362 -0.27424,0 -0.47643,0.12782 0.0186,0.0744 0.0186,0.21382 v 1.23873 q 0,0.0232 0.0232,0.0232 l 0.27656,0.0325 q 0.0232,0 0.0232,0.0256 v 0.11853 q 0,0.0232 -0.0232,0.0232 h -0.9854 q -0.0232,0 -0.0232,-0.0232 v -0.11853 q 0,-0.0256 0.0232,-0.0256 l 0.27656,-0.0325 q 0.0232,0 0.0232,-0.0232 v -1.08999 q 0,-0.51362 -0.41833,-0.51362 -0.23473,0 -0.45319,0.10923 -0.009,0.005 -0.0232,0.0186 v 1.47579 q 0,0.0232 0.0232,0.0232 l 0.27656,0.0325 q 0.0232,0 0.0232,0.0256 v 0.11853 q 0,0.0232 -0.0232,0.0232 h -1.04118 q -0.0256,0 -0.0256,-0.0232 v -0.11853 q 0,-0.0256 0.0256,-0.0256 l 0.33234,-0.0325 q 0.0232,0 0.0232,-0.0232 v -1.57107 q 0,-0.0232 -0.0232,-0.0232 l -0.34164,-0.0395 q -0.0256,0 -0.0256,-0.0232 v -0.10924 q 0,-0.0232 0.0186,-0.0232 z m 5.05485,1.0226 q -0.24403,0.0139 -0.3672,0.0534 -0.0325,0.009 -0.11388,0.0372 -0.24635,0.0837 -0.24635,0.36721 0,0.30445 0.30445,0.30445 0.0883,0 0.21381,-0.0442 0.0627,-0.0232 0.18593,-0.086 0.0232,-0.0163 0.0232,-0.0279 z m 0.0325,0.78088 q -0.29981,0.27657 -0.65074,0.27657 -0.36488,0 -0.49271,-0.29981 -0.0418,-0.0976 -0.0418,-0.20916 0,-0.39277 0.39974,-0.57637 0.12085,-0.0558 0.24635,-0.0814 0.27889,-0.0581 0.50665,-0.0767 v -0.3672 q 0,-0.36953 -0.36255,-0.36953 -0.20685,0 -0.36024,0.0744 -0.0139,0.0116 -0.0232,0.0395 l -0.0674,0.35093 q 0,0.0209 -0.0233,0.0209 h -0.14874 q -0.0232,0 -0.0232,-0.0209 v -0.52756 q 0,-0.0139 0.0232,-0.0232 0.3765,-0.1348 0.71349,-0.1348 0.47644,0 0.61821,0.28586 0.0534,0.10691 0.0534,0.27192 v 1.28521 q 0,0.0186 0.0186,0.0279 l 0.29981,0.086 q 0.0232,0.0139 0.0256,0.0232 v 0.0813 q -0.009,0.0256 -0.0209,0.0256 l -0.6275,0.0837 q -0.0232,0 -0.0232,-0.0232 z m 2.40774,0.009 q 0.0163,0 0.0256,-0.0186 l 0.086,-0.39974 q 0.009,-0.0186 0.0232,-0.0186 h 0.13712 q 0.0232,0 0.0232,0.0233 v 0.59031 q 0,0.0232 -0.0232,0.0232 h -1.70819 q -0.014,0 -0.0232,-0.0186 l -0.0256,-0.0999 v -0.009 q 0,-0.005 0.005,-0.009 l 1.24803,-1.72911 h -0.88082 q -0.0233,0 -0.0233,0.0186 l -0.0813,0.39974 q 0,0.0209 -0.0232,0.0209 h -0.13944 q -0.0232,0 -0.0232,-0.0256 v -0.59032 q 0,-0.0232 0.0232,-0.0232 h 1.63847 q 0.0139,0 0.0232,0.0139 l 0.0302,0.0906 v 0.009 q 0,0.005 -0.007,0.009 l -1.26894,1.74305 z m 1.21548,-3.15609 q 0.0139,-0.005 0.0232,-0.005 h 0.13944 q 0.0232,0 0.0232,0.0232 v 1.45255 q 0.37418,-0.25797 0.73208,-0.25797 0.61588,0 0.61588,0.69025 v 1.22943 q 0,0.0232 0.0232,0.0232 l 0.3091,0.0325 q 0.0232,0 0.0232,0.0256 v 0.11853 q 0,0.0232 -0.0232,0.0232 h -1.0435 q -0.0232,0 -0.0232,-0.0232 v -0.11853 q 0,-0.0256 0.0232,-0.0256 l 0.2998,-0.0325 q 0.0256,0 0.0256,-0.0232 v -1.08999 q 0,-0.51362 -0.4439,-0.51362 -0.16733,0 -0.38347,0.0651 -0.0651,0.0186 -0.11156,0.0442 -0.0232,0.009 -0.0232,0.0279 v 1.46649 q 0,0.0232 0.0232,0.0232 l 0.29981,0.0325 q 0.0232,0 0.0232,0.0256 v 0.11853 q 0,0.0232 -0.0232,0.0232 h -1.06675 q -0.0232,0 -0.0232,-0.0232 v -0.11853 q 0,-0.0256 0.0232,-0.0256 l 0.33466,-0.0325 q 0.0232,0 0.0232,-0.0232 v -2.8191 q 0,-0.0232 -0.0232,-0.0232 l -0.37185,-0.0372 q -0.0232,0 -0.0232,-0.0256 v -0.10923 q 0,-0.0232 0.0186,-0.0232 z m 3.49774,3.83704 q -0.005,-0.007 -0.005,-0.009 0.002,-0.009 0.009,-0.0139 0.33467,-0.15803 0.33467,-0.39509 0,-0.26262 -0.27192,-0.26262 -0.0674,-0.0674 -0.0674,-0.15339 0,-0.20916 0.22543,-0.20916 0.15339,0 0.27424,0.11387 0.13015,0.12783 0.13015,0.34862 0,0.44854 -0.56243,0.6856 -0.0139,0.009 -0.0232,-0.009 z"
         id="text60"
         aria-label="JETSON ORIN NANO PEDESTAL - 11/8/25 Syomazh , " />
      <path
         style="font-size:3.175px;font-family:Sylfaen;-inkscape-font-specification:Sylfaen;fill:#e01b24;stroke-width:0.062"
         d="m 107.75721,144.08287 q 0,-0.009 0.0124,-0.009 0.24185,0 0.38603,-0.12557 0.15038,-0.13022 0.15038,-0.34106 0,-0.17209 -0.0977,-0.26665 -0.0977,-0.0961 -0.26355,-0.0961 -0.11008,0 -0.28836,0.0636 -0.0155,0.006 -0.0232,0.0295 l -0.0434,0.32401 q 0,0.0124 -0.017,0.0124 h -0.11317 q -0.014,0 -0.014,-0.0124 v -0.45734 q 0,-0.009 0.014,-0.017 0.2899,-0.0977 0.5333,-0.0977 0.2589,0 0.42478,0.10232 0.19999,0.12557 0.19999,0.36432 0,0.15658 -0.10387,0.293 -0.10387,0.13488 -0.2713,0.20309 0.24029,0.0434 0.38292,0.20154 0.14418,0.15813 0.14418,0.36897 0,0.32711 -0.2589,0.51935 -0.2403,0.17673 -0.56276,0.17673 -0.15968,0 -0.39997,-0.0527 -0.0636,-0.0139 -0.11783,-0.031 -0.0124,-0.006 -0.0124,-0.0124 v -0.48214 q 0,-0.0124 0.0124,-0.0124 h 0.12713 q 0.0124,0.003 0.0124,0.009 l 0.0636,0.36122 q 0,0.0155 0.0155,0.0202 0.11007,0.0527 0.2992,0.0527 0.2155,0 0.34727,-0.12712 0.12867,-0.12248 0.12867,-0.35192 0,-0.22944 -0.14417,-0.35347 -0.14418,-0.12557 -0.38913,-0.12557 -0.0682,0 -0.12092,0.006 -0.0124,0 -0.0124,-0.0124 z m 1.21543,-0.15193 0.38138,-0.0636 q 0.0186,-0.003 0.0326,-0.003 h 0.076 q 0.0155,0 0.0155,0.0155 v 0.13642 q 0.22944,-0.17208 0.46043,-0.17208 0.2341,0 0.34572,0.20309 0.22944,-0.18914 0.49609,-0.18914 0.40618,0 0.40618,0.46044 v 0.80615 q 0,0.0155 0.0155,0.0155 l 0.20619,0.0217 q 0.017,0 0.017,0.0171 v 0.0791 q 0,0.0155 -0.017,0.0155 h -0.67903 q -0.0155,0 -0.0155,-0.0155 v -0.0791 q 0,-0.0171 0.0155,-0.0171 l 0.18448,-0.0217 q 0.0155,0 0.0155,-0.0155 v -0.71158 q 0,-0.34262 -0.29145,-0.34262 -0.18294,0 -0.31781,0.0853 0.0124,0.0496 0.0124,0.14263 v 0.8263 q 0,0.0155 0.0155,0.0155 l 0.18448,0.0217 q 0.0155,0 0.0155,0.0171 v 0.0791 q 0,0.0155 -0.0155,0.0155 h -0.65732 q -0.0155,0 -0.0155,-0.0155 v -0.0791 q 0,-0.0171 0.0155,-0.0171 l 0.18448,-0.0217 q 0.0155,0 0.0155,-0.0155 v -0.72708 q 0,-0.34262 -0.27905,-0.34262 -0.15658,0 -0.30231,0.0729 -0.006,0.003 -0.0155,0.0124 v 0.98443 q 0,0.0155 0.0155,0.0155 l 0.18449,0.0217 q 0.0155,0 0.0155,0.0171 v 0.0791 q 0,0.0155 -0.0155,0.0155 h -0.69452 q -0.017,0 -0.017,-0.0155 v -0.0791 q 0,-0.0171 0.017,-0.0171 l 0.22169,-0.0217 q 0.0155,0 0.0155,-0.0155 v -1.048 q 0,-0.0155 -0.0155,-0.0155 l -0.22789,-0.0264 q -0.0171,0 -0.0171,-0.0155 v -0.0729 q 0,-0.0155 0.0124,-0.0155 z m 2.60605,0 0.38138,-0.0636 q 0.0186,-0.003 0.0326,-0.003 h 0.076 q 0.0155,0 0.0155,0.0155 v 0.13642 q 0.22944,-0.17208 0.46044,-0.17208 0.23409,0 0.34571,0.20309 0.22945,-0.18914 0.4961,-0.18914 0.40618,0 0.40618,0.46044 v 0.80615 q 0,0.0155 0.0155,0.0155 l 0.20619,0.0217 q 0.017,0 0.017,0.0171 v 0.0791 q 0,0.0155 -0.017,0.0155 h -0.67903 q -0.0155,0 -0.0155,-0.0155 v -0.0791 q 0,-0.0171 0.0155,-0.0171 l 0.18448,-0.0217 q 0.0155,0 0.0155,-0.0155 v -0.71158 q 0,-0.34262 -0.29145,-0.34262 -0.18294,0 -0.31782,0.0853 0.0124,0.0496 0.0124,0.14263 v 0.8263 q 0,0.0155 0.0155,0.0155 l 0.18449,0.0217 q 0.0155,0 0.0155,0.0171 v 0.0791 q 0,0.0155 -0.0155,0.0155 h -0.65733 q -0.0155,0 -0.0155,-0.0155 v -0.0791 q 0,-0.0171 0.0155,-0.0171 l 0.18449,-0.0217 q 0.0155,0 0.0155,-0.0155 v -0.72708 q 0,-0.34262 -0.27906,-0.34262 -0.15658,0 -0.30231,0.0729 -0.006,0.003 -0.0155,0.0124 v 0.98443 q 0,0.0155 0.0155,0.0155 l 0.18449,0.0217 q 0.0155,0 0.0155,0.0171 v 0.0791 q 0,0.0155 -0.0155,0.0155 h -0.69453 q -0.017,0 -0.017,-0.0155 v -0.0791 q 0,-0.0171 0.017,-0.0171 l 0.22169,-0.0217 q 0.0155,0 0.0155,-0.0155 v -1.048 q 0,-0.0155 -0.0155,-0.0155 l -0.2279,-0.0264 q -0.0171,0 -0.0171,-0.0155 v -0.0729 q 0,-0.0155 0.0124,-0.0155 z m 4.46487,0.32711 q 0.005,-0.0109 0.008,-0.0217 -10e-4,-0.005 -0.008,-0.0171 l -0.0744,-0.18448 q -0.006,-0.009 -0.0124,-0.009 l -0.16743,-0.0217 q -0.0124,0 -0.0124,-0.0124 v -0.0806 q 0,-0.0155 0.0155,-0.0155 h 0.63717 q 0.0171,0 0.0171,0.0155 v 0.0806 q 0,0.0124 -0.014,0.0124 l -0.16433,0.0186 q -0.0217,0 -0.0124,0.0217 l 0.35192,0.86351 0.34882,-0.86351 q 0.009,-0.0217 -0.0124,-0.0217 l -0.16434,-0.0186 q -0.0124,0 -0.0124,-0.0124 v -0.0806 q 0,-0.0155 0.0155,-0.0155 h 0.51005 q 0.0171,0 0.0171,0.0155 v 0.0775 q 0,0.0155 -0.0171,0.0155 l -0.17363,0.0186 q -0.008,0.002 -0.0124,0.009 l -0.5178,1.26349 q -0.003,0.009 -0.0124,0.009 h -0.0806 q -0.009,0 -0.0124,-0.009 l -0.36742,-0.89762 -0.39688,0.89762 q -0.003,0.009 -0.0139,0.009 h -0.0729 q -0.009,0 -0.0124,-0.009 l -0.5178,-1.26039 q -0.006,-0.009 -0.0124,-0.009 l -0.18449,-0.0217 q -0.0124,0 -0.0124,-0.0124 v -0.0806 q 0,-0.0155 0.0155,-0.0155 h 0.66043 q -0.002,-0.002 -0.002,-0.003 0.0186,0 0.0186,0.0186 v 0.0806 q 0,0.0124 -0.014,0.0124 l -0.16433,0.0186 q -0.0217,0 -0.0124,0.0217 l 0.35502,0.86351 z m 2.06035,-0.26975 q -0.20619,0 -0.30541,0.17363 -0.0791,0.13798 -0.0791,0.35967 0,0.44493 0.23875,0.60306 0.0868,0.0574 0.20929,0.0574 0.38292,0 0.38292,-0.53795 0,-0.2651 -0.0899,-0.43563 -0.11473,-0.22014 -0.35657,-0.22014 z m 0.0403,-0.13798 q 0.33486,0 0.5178,0.19534 0.17829,0.19069 0.17829,0.52865 0,0.32401 -0.19224,0.53175 -0.19844,0.21239 -0.51935,0.21239 -0.33177,0 -0.51625,-0.19844 -0.18139,-0.19223 -0.18139,-0.52555 0,-0.32866 0.19069,-0.5333 0.19689,-0.21084 0.52245,-0.21084 z m 1.57201,0.13798 q -0.20619,0 -0.30541,0.17363 -0.0791,0.13798 -0.0791,0.35967 0,0.44493 0.23874,0.60306 0.0868,0.0574 0.20929,0.0574 0.38293,0 0.38293,-0.53795 0,-0.2651 -0.0899,-0.43563 -0.11472,-0.22014 -0.35657,-0.22014 z m 0.0403,-0.13798 q 0.33486,0 0.5178,0.19534 0.17828,0.19069 0.17828,0.52865 0,0.32401 -0.19223,0.53175 -0.19845,0.21239 -0.51936,0.21239 -0.33176,0 -0.51625,-0.19844 -0.18138,-0.19223 -0.18138,-0.52555 0,-0.32866 0.19069,-0.5333 0.19688,-0.21084 0.52245,-0.21084 z m 1.90222,0.21394 q -0.0341,-0.0341 -0.10077,-0.0496 -0.0899,-0.0202 -0.15658,-0.0202 -0.22945,0 -0.35347,0.18293 -0.10697,0.15968 -0.10697,0.39998 0,0.22169 0.0853,0.36122 0.10232,0.17053 0.31161,0.17053 0.16588,0 0.30386,-0.0868 0.0155,-0.0139 0.0171,-0.0186 z m 0.13332,-1.02939 q 0.009,-0.003 0.0155,-0.003 h 0.0915 q 0.017,0 0.017,0.0155 v 2.07429 q 0,0.0155 0.0155,0.0155 l 0.22789,0.0248 q 0.017,0 0.017,0.0171 v 0.0729 q 0,0.0139 -0.014,0.0155 l -0.47284,0.031 q -0.0139,0.002 -0.0155,-0.0155 l -0.009,-0.14883 q -0.22789,0.18449 -0.46354,0.18449 -0.2527,0 -0.40618,-0.20619 -0.13952,-0.18758 -0.13952,-0.44493 0,-0.34727 0.20929,-0.57826 0.21859,-0.23875 0.56121,-0.23875 0.0961,0 0.23254,0.0295 v -0.63562 q 0,-0.0155 -0.017,-0.0155 l -0.2465,-0.0248 q -0.017,0 -0.017,-0.017 v -0.0729 q 0,-0.0155 0.0139,-0.0155 z"
         id="text61"
         aria-label="3mm wood " />
    </g>
  </g>
</svg>
